<svg width="187" height="56" viewBox="0 0 187 56" fill="none" xmlns="http://www.w3.org/2000/svg">
<path d="M68.51 22.24H64.91L64.15 24H63.1L66.27 16.88H67.14L70.32 24H69.27L68.51 22.24ZM68.16 21.42L66.71 18.03L65.26 21.42H68.16ZM75.4782 18.97L73.2882 24H72.3782L70.2082 18.97H71.2782L72.8582 22.86L74.4682 18.97H75.4782ZM80.8012 18.96V24H79.8012V23.14C79.6545 23.44 79.4345 23.67 79.1412 23.83C78.8545 23.99 78.5178 24.07 78.1312 24.07C77.6845 24.07 77.2912 23.9633 76.9512 23.75C76.6178 23.5367 76.3578 23.2367 76.1712 22.85C75.9845 22.4567 75.8912 22 75.8912 21.48C75.8912 20.96 75.9845 20.5 76.1712 20.1C76.3645 19.7 76.6312 19.39 76.9712 19.17C77.3112 18.95 77.6978 18.84 78.1312 18.84C78.5178 18.84 78.8545 18.9233 79.1412 19.09C79.4278 19.25 79.6478 19.48 79.8012 19.78V18.96H80.8012ZM78.3712 23.27C78.8245 23.27 79.1745 23.1133 79.4212 22.8C79.6745 22.48 79.8012 22.0333 79.8012 21.46C79.8012 20.88 79.6745 20.4333 79.4212 20.12C79.1745 19.8067 78.8212 19.65 78.3612 19.65C77.9078 19.65 77.5512 19.8133 77.2912 20.14C77.0378 20.46 76.9112 20.9067 76.9112 21.48C76.9112 22.0467 77.0378 22.4867 77.2912 22.8C77.5512 23.1133 77.9112 23.27 78.3712 23.27ZM82.2849 18.96H83.2849V24H82.2849V18.96ZM83.3649 16.76V17.82H82.1949V16.76H83.3649ZM84.7654 16.64H85.7654V24H84.7654V16.64ZM91.8559 18.96V24H90.8559V23.14C90.7092 23.44 90.4892 23.67 90.1959 23.83C89.9092 23.99 89.5725 24.07 89.1859 24.07C88.7392 24.07 88.3459 23.9633 88.0059 23.75C87.6725 23.5367 87.4125 23.2367 87.2259 22.85C87.0392 22.4567 86.9459 22 86.9459 21.48C86.9459 20.96 87.0392 20.5 87.2259 20.1C87.4192 19.7 87.6859 19.39 88.0259 19.17C88.3659 18.95 88.7525 18.84 89.1859 18.84C89.5725 18.84 89.9092 18.9233 90.1959 19.09C90.4825 19.25 90.7025 19.48 90.8559 19.78V18.96H91.8559ZM89.4259 23.27C89.8792 23.27 90.2292 23.1133 90.4759 22.8C90.7292 22.48 90.8559 22.0333 90.8559 21.46C90.8559 20.88 90.7292 20.4333 90.4759 20.12C90.2292 19.8067 89.8759 19.65 89.4159 19.65C88.9625 19.65 88.6059 19.8133 88.3459 20.14C88.0925 20.46 87.9659 20.9067 87.9659 21.48C87.9659 22.0467 88.0925 22.4867 88.3459 22.8C88.6059 23.1133 88.9659 23.27 89.4259 23.27ZM96.0096 18.84C96.4496 18.84 96.8396 18.9467 97.1796 19.16C97.5196 19.3733 97.7829 19.6767 97.9696 20.07C98.1563 20.4633 98.2496 20.92 98.2496 21.44C98.2496 21.96 98.1529 22.42 97.9596 22.82C97.7729 23.2133 97.5096 23.52 97.1696 23.74C96.8296 23.96 96.4429 24.07 96.0096 24.07C95.6229 24.07 95.2829 23.99 94.9896 23.83C94.7029 23.6633 94.4863 23.4267 94.3396 23.12V24H93.3396V16.64H94.3396V19.79C94.4863 19.49 94.7029 19.2567 94.9896 19.09C95.2829 18.9233 95.6229 18.84 96.0096 18.84ZM95.7796 23.27C96.2329 23.27 96.5863 23.11 96.8396 22.79C97.0929 22.4633 97.2196 22.0133 97.2196 21.44C97.2196 20.8733 97.0929 20.4333 96.8396 20.12C96.5863 19.8067 96.2329 19.65 95.7796 19.65C95.3196 19.65 94.9629 19.8067 94.7096 20.12C94.4629 20.4333 94.3396 20.88 94.3396 21.46C94.3396 22.04 94.4629 22.4867 94.7096 22.8C94.9629 23.1133 95.3196 23.27 95.7796 23.27ZM99.4334 16.64H100.433V24H99.4334V16.64ZM106.214 21.5H102.614C102.647 22.68 103.184 23.27 104.224 23.27C104.804 23.27 105.334 23.08 105.814 22.7L106.124 23.42C105.897 23.62 105.607 23.78 105.254 23.9C104.907 24.0133 104.557 24.07 104.204 24.07C103.397 24.07 102.764 23.84 102.304 23.38C101.844 22.9133 101.614 22.2767 101.614 21.47C101.614 20.9567 101.714 20.5 101.914 20.1C102.12 19.7 102.407 19.39 102.774 19.17C103.14 18.95 103.557 18.84 104.024 18.84C104.704 18.84 105.237 19.06 105.624 19.5C106.017 19.94 106.214 20.55 106.214 21.33V21.5ZM104.044 19.59C103.664 19.59 103.354 19.7033 103.114 19.93C102.874 20.1567 102.72 20.48 102.654 20.9H105.324C105.284 20.4733 105.154 20.15 104.934 19.93C104.714 19.7033 104.417 19.59 104.044 19.59ZM112.209 24.07C111.715 24.07 111.282 23.9633 110.909 23.75C110.535 23.5367 110.245 23.2333 110.039 22.84C109.839 22.4467 109.739 21.9867 109.739 21.46C109.739 20.9333 109.839 20.4733 110.039 20.08C110.245 19.68 110.535 19.3733 110.909 19.16C111.282 18.9467 111.715 18.84 112.209 18.84C112.695 18.84 113.125 18.9467 113.499 19.16C113.872 19.3733 114.159 19.68 114.359 20.08C114.565 20.4733 114.669 20.9333 114.669 21.46C114.669 21.9867 114.565 22.4467 114.359 22.84C114.159 23.2333 113.872 23.5367 113.499 23.75C113.125 23.9633 112.695 24.07 112.209 24.07ZM112.199 23.27C112.665 23.27 113.022 23.1167 113.269 22.81C113.515 22.5033 113.639 22.0533 113.639 21.46C113.639 20.88 113.512 20.4333 113.259 20.12C113.012 19.8067 112.662 19.65 112.209 19.65C111.749 19.65 111.392 19.8067 111.139 20.12C110.885 20.4333 110.759 20.88 110.759 21.46C110.759 22.0533 110.882 22.5033 111.129 22.81C111.382 23.1167 111.739 23.27 112.199 23.27ZM118.529 18.84C119.736 18.84 120.339 19.5133 120.339 20.86V24H119.329V20.92C119.329 20.48 119.243 20.16 119.069 19.96C118.903 19.76 118.633 19.66 118.259 19.66C117.833 19.66 117.489 19.7933 117.229 20.06C116.976 20.3267 116.849 20.6833 116.849 21.13V24H115.849V20.38C115.849 19.8533 115.823 19.38 115.769 18.96H116.709L116.799 19.83C116.959 19.51 117.189 19.2667 117.489 19.1C117.796 18.9267 118.143 18.84 118.529 18.84ZM125.753 19.74V22.27C125.753 22.6167 125.826 22.8633 125.973 23.01C126.126 23.15 126.336 23.22 126.603 23.22C126.776 23.22 126.953 23.1933 127.133 23.14V23.96C126.913 24.0333 126.663 24.07 126.383 24.07C125.863 24.07 125.46 23.9233 125.173 23.63C124.886 23.3367 124.743 22.91 124.743 22.35V19.74H123.763V18.96H124.743V17.7L125.753 17.35V18.96H127.143V19.74H125.753ZM130.756 18.84C131.963 18.84 132.566 19.5133 132.566 20.86V24H131.556V20.92C131.556 20.48 131.469 20.16 131.296 19.96C131.129 19.76 130.859 19.66 130.486 19.66C130.059 19.66 129.716 19.7933 129.456 20.06C129.203 20.3267 129.076 20.6833 129.076 21.13V24H128.076V16.64H129.076V19.74C129.243 19.4467 129.473 19.2233 129.766 19.07C130.059 18.9167 130.389 18.84 130.756 18.84ZM138.304 21.5H134.704C134.737 22.68 135.274 23.27 136.314 23.27C136.894 23.27 137.424 23.08 137.904 22.7L138.214 23.42C137.987 23.62 137.697 23.78 137.344 23.9C136.997 24.0133 136.647 24.07 136.294 24.07C135.487 24.07 134.854 23.84 134.394 23.38C133.934 22.9133 133.704 22.2767 133.704 21.47C133.704 20.9567 133.804 20.5 134.004 20.1C134.21 19.7 134.497 19.39 134.864 19.17C135.23 18.95 135.647 18.84 136.114 18.84C136.794 18.84 137.327 19.06 137.714 19.5C138.107 19.94 138.304 20.55 138.304 21.33V21.5ZM136.134 19.59C135.754 19.59 135.444 19.7033 135.204 19.93C134.964 20.1567 134.81 20.48 134.744 20.9H137.414C137.374 20.4733 137.244 20.15 137.024 19.93C136.804 19.7033 136.507 19.59 136.134 19.59ZM72.9 37.994H66.636L65.34 41H63L68.796 28.184H70.686L76.5 41H74.178L72.9 37.994ZM72.126 36.194L69.768 30.704L67.41 36.194H72.126ZM82.908 31.676C83.688 31.676 84.378 31.88 84.978 32.288C85.59 32.684 86.064 33.248 86.4 33.98C86.748 34.7 86.922 35.528 86.922 36.464C86.922 37.4 86.754 38.222 86.418 38.93C86.082 39.638 85.608 40.184 84.996 40.568C84.396 40.952 83.7 41.144 82.908 41.144C82.248 41.144 81.66 41.006 81.144 40.73C80.628 40.442 80.232 40.046 79.956 39.542V44.888H77.724V34.484C77.724 33.524 77.676 32.666 77.58 31.91H79.686L79.866 33.476C80.106 32.912 80.496 32.474 81.036 32.162C81.576 31.838 82.2 31.676 82.908 31.676ZM82.296 39.38C83.052 39.38 83.634 39.128 84.042 38.624C84.45 38.12 84.654 37.4 84.654 36.464C84.654 35.516 84.45 34.778 84.042 34.25C83.634 33.71 83.058 33.44 82.314 33.44C81.546 33.44 80.958 33.698 80.55 34.214C80.142 34.73 79.938 35.468 79.938 36.428C79.938 37.376 80.142 38.108 80.55 38.624C80.958 39.128 81.54 39.38 82.296 39.38ZM94.0701 31.676C94.8501 31.676 95.5401 31.88 96.1401 32.288C96.7521 32.684 97.2261 33.248 97.5621 33.98C97.9101 34.7 98.0841 35.528 98.0841 36.464C98.0841 37.4 97.9161 38.222 97.5801 38.93C97.2441 39.638 96.7701 40.184 96.1581 40.568C95.5581 40.952 94.8621 41.144 94.0701 41.144C93.4101 41.144 92.8221 41.006 92.3061 40.73C91.7901 40.442 91.3941 40.046 91.1181 39.542V44.888H88.8861V34.484C88.8861 33.524 88.8381 32.666 88.7421 31.91H90.8481L91.0281 33.476C91.2681 32.912 91.6581 32.474 92.1981 32.162C92.7381 31.838 93.3621 31.676 94.0701 31.676ZM93.4581 39.38C94.2141 39.38 94.7961 39.128 95.2041 38.624C95.6121 38.12 95.8161 37.4 95.8161 36.464C95.8161 35.516 95.6121 34.778 95.2041 34.25C94.7961 33.71 94.2201 33.44 93.4761 33.44C92.7081 33.44 92.1201 33.698 91.7121 34.214C91.3041 34.73 91.1001 35.468 91.1001 36.428C91.1001 37.376 91.3041 38.108 91.7121 38.624C92.1201 39.128 92.7021 39.38 93.4581 39.38ZM109.488 41.162C108.504 41.162 107.58 41.03 106.716 40.766C105.864 40.502 105.138 40.124 104.538 39.632L105.33 37.94C105.954 38.408 106.602 38.756 107.274 38.984C107.958 39.2 108.702 39.308 109.506 39.308C110.394 39.308 111.078 39.152 111.558 38.84C112.05 38.528 112.296 38.09 112.296 37.526C112.296 37.046 112.068 36.68 111.612 36.428C111.168 36.164 110.43 35.918 109.398 35.69C107.79 35.342 106.62 34.892 105.888 34.34C105.156 33.788 104.79 32.984 104.79 31.928C104.79 31.172 104.994 30.5 105.402 29.912C105.81 29.324 106.386 28.862 107.13 28.526C107.886 28.19 108.756 28.022 109.74 28.022C110.64 28.022 111.492 28.16 112.296 28.436C113.112 28.7 113.778 29.072 114.294 29.552L113.52 31.244C112.38 30.332 111.12 29.876 109.74 29.876C108.912 29.876 108.258 30.05 107.778 30.398C107.298 30.734 107.058 31.196 107.058 31.784C107.058 32.288 107.268 32.672 107.688 32.936C108.12 33.2 108.852 33.446 109.884 33.674C110.952 33.926 111.822 34.202 112.494 34.502C113.166 34.79 113.682 35.168 114.042 35.636C114.402 36.092 114.582 36.668 114.582 37.364C114.582 38.132 114.378 38.804 113.97 39.38C113.562 39.944 112.974 40.382 112.206 40.694C111.438 41.006 110.532 41.162 109.488 41.162ZM119.311 33.602V37.67C119.311 38.738 119.809 39.272 120.805 39.272C121.081 39.272 121.381 39.224 121.705 39.128V40.91C121.309 41.054 120.829 41.126 120.265 41.126C119.233 41.126 118.441 40.838 117.889 40.262C117.337 39.686 117.061 38.858 117.061 37.778V33.602H115.315V31.91H117.061V29.696L119.311 28.94V31.91H121.723V33.602H119.311ZM127.391 41.144C126.467 41.144 125.651 40.952 124.943 40.568C124.247 40.184 123.707 39.638 123.323 38.93C122.951 38.21 122.765 37.37 122.765 36.41C122.765 35.45 122.951 34.616 123.323 33.908C123.707 33.188 124.247 32.636 124.943 32.252C125.651 31.868 126.467 31.676 127.391 31.676C128.303 31.676 129.107 31.868 129.803 32.252C130.499 32.636 131.033 33.188 131.405 33.908C131.789 34.616 131.981 35.45 131.981 36.41C131.981 37.37 131.789 38.21 131.405 38.93C131.033 39.638 130.499 40.184 129.803 40.568C129.107 40.952 128.303 41.144 127.391 41.144ZM127.373 39.38C128.141 39.38 128.723 39.134 129.119 38.642C129.527 38.138 129.731 37.394 129.731 36.41C129.731 35.438 129.527 34.7 129.119 34.196C128.711 33.68 128.135 33.422 127.391 33.422C126.635 33.422 126.053 33.68 125.645 34.196C125.237 34.7 125.033 35.438 125.033 36.41C125.033 37.394 125.231 38.138 125.627 38.642C126.035 39.134 126.617 39.38 127.373 39.38ZM138.817 31.694C139.165 31.694 139.465 31.742 139.717 31.838L139.699 33.89C139.315 33.734 138.919 33.656 138.511 33.656C137.743 33.656 137.155 33.878 136.747 34.322C136.351 34.766 136.153 35.354 136.153 36.086V41H133.921V34.484C133.921 33.524 133.873 32.666 133.777 31.91H135.883L136.063 33.512C136.291 32.924 136.651 32.474 137.143 32.162C137.635 31.85 138.193 31.694 138.817 31.694ZM148.75 36.572H142.486C142.534 37.544 142.774 38.264 143.206 38.732C143.65 39.188 144.304 39.416 145.168 39.416C146.164 39.416 147.088 39.092 147.94 38.444L148.588 39.992C148.156 40.34 147.622 40.622 146.986 40.838C146.362 41.042 145.726 41.144 145.078 41.144C143.59 41.144 142.42 40.724 141.568 39.884C140.716 39.044 140.29 37.892 140.29 36.428C140.29 35.504 140.476 34.682 140.848 33.962C141.22 33.242 141.742 32.684 142.414 32.288C143.086 31.88 143.848 31.676 144.7 31.676C145.948 31.676 146.932 32.084 147.652 32.9C148.384 33.704 148.75 34.814 148.75 36.23V36.572ZM144.754 33.296C144.154 33.296 143.662 33.476 143.278 33.836C142.906 34.184 142.666 34.694 142.558 35.366H146.788C146.716 34.682 146.506 34.166 146.158 33.818C145.822 33.47 145.354 33.296 144.754 33.296Z" fill="#49525C"/>
<path d="M51.0454 28.8903C51.0119 25.353 54.0968 23.632 54.2379 23.5519C52.4908 21.134 49.7828 20.8037 48.8312 20.7773C46.5568 20.5501 44.3506 22.0691 43.192 22.0691C42.0102 22.0691 40.2261 20.7993 38.3032 20.8366C35.8287 20.8728 33.5139 22.2327 32.2442 24.3443C29.6242 28.65 31.5782 34.9773 34.0886 38.4576C35.3442 40.1632 36.8117 42.0652 38.7322 41.9983C40.6111 41.9258 41.313 40.8623 43.5805 40.8623C45.8271 40.8623 46.4862 41.9983 48.4449 41.9555C50.4616 41.9258 51.7311 40.2433 52.943 38.5235C54.3941 36.5709 54.9768 34.6459 55 34.5471C54.9537 34.5317 51.0847 33.1291 51.0454 28.8903ZM47.3453 18.4878C48.3558 17.2882 49.0473 15.6562 48.8554 14C47.3926 14.0615 45.5634 14.9603 44.51 16.1336C43.578 17.1675 42.7455 18.8621 42.9605 20.4557C44.6037 20.5721 46.2907 19.6688 47.3453 18.4878Z" fill="#49525C"/>
<rect x="0.25" y="0.25" width="186.5" height="55.5" rx="4.75" stroke="#B0B4BF" stroke-width="0.5"/>
</svg>
