<svg width="187" height="56" viewBox="0 0 187 56" fill="none" xmlns="http://www.w3.org/2000/svg">
<path d="M69.6 18.22V21.58C69.3 21.7333 68.92 21.8567 68.46 21.95C68.0067 22.0367 67.5433 22.08 67.07 22.08C66.35 22.08 65.7267 21.9367 65.2 21.65C64.6733 21.3567 64.27 20.9367 63.99 20.39C63.7167 19.8433 63.58 19.19 63.58 18.43C63.58 17.6833 63.7167 17.0367 63.99 16.49C64.27 15.9433 64.6667 15.5267 65.18 15.24C65.7 14.9467 66.31 14.8 67.01 14.8C67.51 14.8 67.97 14.8767 68.39 15.03C68.8167 15.1767 69.18 15.39 69.48 15.67L69.11 16.44C68.77 16.16 68.4367 15.96 68.11 15.84C67.7833 15.72 67.42 15.66 67.02 15.66C66.2467 15.66 65.6567 15.8967 65.25 16.37C64.85 16.8433 64.65 17.53 64.65 18.43C64.65 19.3567 64.8567 20.06 65.27 20.54C65.6833 21.0133 66.2933 21.25 67.1 21.25C67.64 21.25 68.16 21.17 68.66 21.01V19.01H67V18.22H69.6ZM71.1835 14.88H75.8035V15.72H72.2035V17.96H75.6035V18.8H72.2035V21.16H75.8035V22H71.1835V14.88ZM78.7331 15.74H76.3231V14.88H82.1831V15.74H79.7731V22H78.7331V15.74ZM85.8027 14.88H86.8327V22H85.8027V14.88ZM90.1882 15.74H87.7782V14.88H93.6382V15.74H91.2282V22H90.1882V15.74ZM100.318 22.08C99.6444 22.08 99.0577 21.9333 98.5577 21.64C98.0644 21.34 97.6811 20.9167 97.4077 20.37C97.1411 19.8233 97.0077 19.18 97.0077 18.44C97.0077 17.6933 97.1411 17.0467 97.4077 16.5C97.6744 15.9533 98.0577 15.5333 98.5577 15.24C99.0577 14.9467 99.6444 14.8 100.318 14.8C100.998 14.8 101.584 14.9467 102.078 15.24C102.578 15.5333 102.961 15.9533 103.228 16.5C103.494 17.0467 103.628 17.69 103.628 18.43C103.628 19.1767 103.494 19.8233 103.228 20.37C102.961 20.9167 102.578 21.34 102.078 21.64C101.578 21.9333 100.991 22.08 100.318 22.08ZM100.318 21.24C101.031 21.24 101.584 20.9967 101.978 20.51C102.378 20.0233 102.578 19.33 102.578 18.43C102.578 17.5367 102.378 16.85 101.978 16.37C101.584 15.8833 101.031 15.64 100.318 15.64C99.6044 15.64 99.0511 15.8833 98.6577 16.37C98.2644 16.85 98.0677 17.5367 98.0677 18.43C98.0677 19.33 98.2644 20.0233 98.6577 20.51C99.0577 20.9967 99.6111 21.24 100.318 21.24ZM110.891 14.88V22H110.101L106.021 16.62V22H105.051V14.88H105.831L109.921 20.27V14.88H110.891ZM75.276 31.926V38.208C74.652 38.508 73.92 38.742 73.08 38.91C72.252 39.078 71.4 39.162 70.524 39.162C69.168 39.162 67.992 38.898 66.996 38.37C66 37.842 65.232 37.086 64.692 36.102C64.164 35.118 63.9 33.942 63.9 32.574C63.9 31.242 64.164 30.084 64.692 29.1C65.232 28.116 65.988 27.36 66.96 26.832C67.944 26.292 69.09 26.022 70.398 26.022C71.322 26.022 72.18 26.148 72.972 26.4C73.776 26.652 74.436 27.006 74.952 27.462L74.052 29.478C73.452 29.046 72.87 28.734 72.306 28.542C71.742 28.35 71.13 28.254 70.47 28.254C67.998 28.254 66.762 29.694 66.762 32.574C66.762 35.514 68.052 36.984 70.632 36.984C71.34 36.984 72.048 36.894 72.756 36.714V33.888H70.236V31.926H75.276ZM81.8661 39.144C80.8941 39.144 80.0421 38.952 79.3101 38.568C78.5901 38.184 78.0321 37.632 77.6361 36.912C77.2521 36.192 77.0601 35.352 77.0601 34.392C77.0601 33.432 77.2521 32.592 77.6361 31.872C78.0321 31.152 78.5901 30.6 79.3101 30.216C80.0421 29.832 80.8941 29.64 81.8661 29.64C82.8261 29.64 83.6661 29.832 84.3861 30.216C85.1061 30.6 85.6581 31.152 86.0421 31.872C86.4381 32.592 86.6361 33.432 86.6361 34.392C86.6361 35.352 86.4381 36.192 86.0421 36.912C85.6581 37.632 85.1061 38.184 84.3861 38.568C83.6661 38.952 82.8261 39.144 81.8661 39.144ZM81.8661 37.074C82.5381 37.074 83.0481 36.852 83.3961 36.408C83.7561 35.964 83.9361 35.292 83.9361 34.392C83.9361 33.504 83.7561 32.838 83.3961 32.394C83.0481 31.938 82.5381 31.71 81.8661 31.71C81.1821 31.71 80.6601 31.938 80.3001 32.394C79.9401 32.838 79.7601 33.504 79.7601 34.392C79.7601 36.18 80.4621 37.074 81.8661 37.074ZM92.7294 39.144C91.7574 39.144 90.9054 38.952 90.1734 38.568C89.4534 38.184 88.8954 37.632 88.4994 36.912C88.1154 36.192 87.9234 35.352 87.9234 34.392C87.9234 33.432 88.1154 32.592 88.4994 31.872C88.8954 31.152 89.4534 30.6 90.1734 30.216C90.9054 29.832 91.7574 29.64 92.7294 29.64C93.6894 29.64 94.5294 29.832 95.2494 30.216C95.9694 30.6 96.5214 31.152 96.9054 31.872C97.3014 32.592 97.4994 33.432 97.4994 34.392C97.4994 35.352 97.3014 36.192 96.9054 36.912C96.5214 37.632 95.9694 38.184 95.2494 38.568C94.5294 38.952 93.6894 39.144 92.7294 39.144ZM92.7294 37.074C93.4014 37.074 93.9114 36.852 94.2594 36.408C94.6194 35.964 94.7994 35.292 94.7994 34.392C94.7994 33.504 94.6194 32.838 94.2594 32.394C93.9114 31.938 93.4014 31.71 92.7294 31.71C92.0454 31.71 91.5234 31.938 91.1634 32.394C90.8034 32.838 90.6234 33.504 90.6234 34.392C90.6234 36.18 91.3254 37.074 92.7294 37.074ZM108.471 29.874V38.586C108.471 40.038 108.051 41.142 107.211 41.898C106.371 42.654 105.147 43.032 103.539 43.032C102.087 43.032 100.827 42.75 99.7587 42.186L100.173 40.17C101.277 40.722 102.369 40.998 103.449 40.998C104.229 40.998 104.811 40.812 105.195 40.44C105.579 40.08 105.771 39.528 105.771 38.784V37.2C105.483 37.644 105.081 38.016 104.565 38.316C104.049 38.604 103.479 38.748 102.855 38.748C102.063 38.748 101.361 38.562 100.749 38.19C100.137 37.806 99.6567 37.272 99.3087 36.588C98.9607 35.892 98.7867 35.094 98.7867 34.194C98.7867 33.294 98.9607 32.502 99.3087 31.818C99.6567 31.122 100.137 30.588 100.749 30.216C101.361 29.832 102.063 29.64 102.855 29.64C103.491 29.64 104.067 29.778 104.583 30.054C105.099 30.33 105.495 30.702 105.771 31.17V29.874H108.471ZM103.647 36.678C104.307 36.678 104.823 36.462 105.195 36.03C105.579 35.586 105.771 34.974 105.771 34.194C105.771 33.426 105.585 32.826 105.213 32.394C104.841 31.95 104.319 31.728 103.647 31.728C102.975 31.728 102.447 31.95 102.063 32.394C101.679 32.826 101.487 33.426 101.487 34.194C101.487 34.962 101.679 35.568 102.063 36.012C102.447 36.456 102.975 36.678 103.647 36.678ZM110.645 25.752H113.363V39H110.645V25.752ZM123.774 34.662H117.762C117.81 35.514 118.032 36.138 118.428 36.534C118.824 36.918 119.412 37.11 120.192 37.11C120.66 37.11 121.128 37.032 121.596 36.876C122.064 36.72 122.496 36.492 122.892 36.192L123.612 38.028C123.18 38.376 122.64 38.652 121.992 38.856C121.356 39.048 120.714 39.144 120.066 39.144C118.53 39.144 117.324 38.724 116.448 37.884C115.572 37.032 115.134 35.874 115.134 34.41C115.134 33.486 115.32 32.664 115.692 31.944C116.076 31.212 116.61 30.648 117.294 30.252C117.978 29.844 118.752 29.64 119.616 29.64C120.9 29.64 121.914 30.06 122.658 30.9C123.402 31.728 123.774 32.85 123.774 34.266V34.662ZM119.688 31.548C119.172 31.548 118.752 31.698 118.428 31.998C118.116 32.298 117.912 32.736 117.816 33.312H121.434C121.29 32.136 120.708 31.548 119.688 31.548ZM130.723 26.184H136.537C137.953 26.184 139.051 26.526 139.831 27.21C140.623 27.894 141.019 28.824 141.019 30C141.019 31.164 140.623 32.094 139.831 32.79C139.039 33.474 137.941 33.816 136.537 33.816H133.531V39H130.723V26.184ZM136.177 31.674C137.641 31.674 138.373 31.122 138.373 30.018C138.373 28.902 137.641 28.344 136.177 28.344H133.531V31.674H136.177ZM142.69 25.752H145.408V39H142.69V25.752ZM156.773 29.874V39H154.091V37.65C153.815 38.118 153.425 38.484 152.921 38.748C152.417 39.012 151.847 39.144 151.211 39.144C150.419 39.144 149.717 38.952 149.105 38.568C148.505 38.184 148.031 37.638 147.683 36.93C147.347 36.21 147.179 35.382 147.179 34.446C147.179 33.51 147.347 32.676 147.683 31.944C148.031 31.212 148.511 30.648 149.123 30.252C149.735 29.844 150.431 29.64 151.211 29.64C151.847 29.64 152.417 29.778 152.921 30.054C153.425 30.33 153.815 30.702 154.091 31.17V29.874H156.773ZM152.003 37.074C152.675 37.074 153.191 36.846 153.551 36.39C153.911 35.934 154.091 35.274 154.091 34.41C154.091 33.546 153.911 32.886 153.551 32.43C153.191 31.962 152.675 31.728 152.003 31.728C151.331 31.728 150.809 31.968 150.437 32.448C150.065 32.928 149.879 33.594 149.879 34.446C149.879 35.298 150.059 35.952 150.419 36.408C150.791 36.852 151.319 37.074 152.003 37.074ZM167.967 29.874L163.755 39.486C163.239 40.65 162.585 41.502 161.793 42.042C161.013 42.594 160.053 42.948 158.913 43.104L158.283 41.016C159.123 40.836 159.753 40.608 160.173 40.332C160.605 40.056 160.941 39.654 161.181 39.126L161.451 38.532L157.689 29.874H160.533L162.873 35.796L165.285 29.874H167.967Z" fill="#49525C"/>
<rect x="0.25" y="0.25" width="186.5" height="55.5" rx="4.75" stroke="#B0B4BF" stroke-width="0.5"/>
<path d="M51 26.7679C52.3333 27.5378 52.3333 29.4622 51 30.232L30.75 41.9234C29.4167 42.6932 27.75 41.7309 27.75 40.1913L27.75 16.8087C27.75 15.2691 29.4167 14.3068 30.75 15.0766L51 26.7679Z" fill="#49525C"/>
</svg>
