<svg width="17" height="17" viewBox="0 0 17 17" fill="none" xmlns="http://www.w3.org/2000/svg">
<path fill-rule="evenodd" clip-rule="evenodd" d="M16.0039 0.332031H0.996094C0.630859 0.332031 0.332031 0.630859 0.332031 0.996094V16.0039C0.332031 16.3691 0.630859 16.668 0.996094 16.668H16.0039C16.3691 16.668 16.668 16.3691 16.668 16.0039V0.996094C16.668 0.630859 16.3691 0.332031 16.0039 0.332031Z" fill="#4B5FFA"/>
<path fill-rule="evenodd" clip-rule="evenodd" d="M5.51074 4.1167C5.51074 4.9006 4.87521 5.53613 4.09131 5.53613C3.3074 5.53613 2.67188 4.9006 2.67188 4.1167C2.67188 3.33279 3.3074 2.69727 4.09131 2.69727C4.87521 2.69727 5.51074 3.33279 5.51074 4.1167Z" fill="#EBF0FF"/>
<path fill-rule="evenodd" clip-rule="evenodd" d="M2.87109 6.5332H5.31152V14.3027H2.87109V6.5332Z" fill="#EBF0FF"/>
<path fill-rule="evenodd" clip-rule="evenodd" d="M6.77344 6.5332V14.3027H9.21387V9.81824C9.21387 9.08323 9.81516 8.48181 10.5503 8.48181C11.2853 8.48181 11.8867 9.08323 11.8867 9.81824V14.3027H14.3271V9.26416C14.3271 7.6708 13.0235 6.36719 11.4302 6.36719C10.4712 6.36719 9.61736 6.83955 9.08936 7.56289V6.5332H6.77344Z" fill="#EBF0FF"/>
<path d="M12.6836 16.3359H0.996094C0.812958 16.3359 0.664062 16.187 0.664062 16.0039V0.996094C0.664062 0.812958 0.812958 0.664062 0.996094 0.664062H1.66016C1.84355 0.664062 1.99219 0.515427 1.99219 0.332031C1.99219 0.148636 1.84355 0 1.66016 0H0.996094C0.446815 0 0 0.446815 0 0.996094V16.0039C0 16.5532 0.446815 17 0.996094 17H12.6836C12.8669 17 13.0156 16.8514 13.0156 16.668C13.0156 16.4846 12.867 16.3359 12.6836 16.3359Z" fill="black"/>
<path d="M16.0039 0H4.31641C4.13301 0 3.98438 0.148636 3.98438 0.332031C3.98438 0.515427 4.13301 0.664062 4.31641 0.664062H16.0039C16.187 0.664062 16.3359 0.812958 16.3359 0.996094V16.0039C16.3359 16.187 16.187 16.3359 16.0039 16.3359H15.3398C15.1564 16.3359 15.0078 16.4846 15.0078 16.668C15.0078 16.8514 15.1564 17 15.3398 17H16.0039C16.5532 17 17 16.5531 17 16.0039V0.996094C17 0.446815 16.5532 0 16.0039 0Z" fill="black"/>
<path d="M2.98841 0.664062C3.17168 0.664062 3.32044 0.515427 3.32044 0.332031C3.32044 0.148636 3.17168 0 2.98841 0H2.98815C2.80476 0 2.65625 0.148636 2.65625 0.332031C2.65625 0.515427 2.80502 0.664062 2.98841 0.664062Z" fill="black"/>
<path d="M14.0118 16.3359H14.0116C13.8282 16.3359 13.6797 16.4846 13.6797 16.668C13.6797 16.8514 13.8285 17 14.0118 17C14.1952 17 14.3439 16.8514 14.3439 16.668C14.3439 16.4846 14.1952 16.3359 14.0118 16.3359Z" fill="black"/>
</svg>
