<!-- Generated by IcoMoon.io -->
<svg version="1.1" xmlns="http://www.w3.org/2000/svg" width="32" height="32" viewBox="0 0 32 32">
<title>money-wallet-1</title>
<path fill="none" stroke-linejoin="round" stroke-linecap="round" stroke-miterlimit="4" stroke-width="3" stroke="#000" d="M29 24.666v2c0 1.061-0.421 2.078-1.172 2.828s-1.768 1.172-2.828 1.172h-20c-1.061 0-2.078-0.421-2.828-1.172s-1.172-1.768-1.172-2.828v-14c0-1.061 0.421-2.078 1.172-2.828s1.768-1.172 2.828-1.172h20c1.061 0 2.078 0.421 2.828 1.172s1.172 1.768 1.172 2.828v2"></path>
<path fill="none" stroke-linejoin="round" stroke-linecap="round" stroke-miterlimit="4" stroke-width="3" stroke="#000" d="M25 8.666l-3.105-6.211c-0.117-0.235-0.28-0.445-0.478-0.617s-0.429-0.304-0.678-0.387c-0.249-0.083-0.512-0.116-0.774-0.098s-0.518 0.089-0.753 0.206l-14.211 7.105"></path>
<path fill="none" stroke-linejoin="round" stroke-linecap="round" stroke-miterlimit="4" stroke-width="3" stroke="#000" d="M29 24.666c0.53 0 1.039-0.211 1.414-0.586s0.586-0.884 0.586-1.414v-6c0-0.53-0.211-1.039-0.586-1.414s-0.884-0.586-1.414-0.586h-5c-1.326 0-2.598 0.527-3.536 1.464s-1.464 2.209-1.464 3.536c0 1.326 0.527 2.598 1.464 3.536s2.21 1.464 3.536 1.464h5z"></path>
<path fill="none" stroke-linejoin="round" stroke-linecap="round" stroke-miterlimit="4" stroke-width="3" stroke="#000" d="M24 19.166c0.099 0 0.196 0.029 0.278 0.084s0.146 0.133 0.184 0.224c0.038 0.091 0.048 0.192 0.028 0.289s-0.067 0.186-0.137 0.256c-0.070 0.070-0.159 0.118-0.256 0.137s-0.198 0.009-0.289-0.028-0.169-0.102-0.224-0.184c-0.055-0.082-0.084-0.179-0.084-0.278 0-0.133 0.053-0.26 0.146-0.354s0.221-0.146 0.354-0.146"></path>
</svg>
