<!-- Generated by IcoMoon.io -->
<svg version="1.1" xmlns="http://www.w3.org/2000/svg" width="32" height="32" viewBox="0 0 32 32">
<title>pencil-write-1</title>
<path fill="none" stroke-linejoin="round" stroke-linecap="round" stroke-miterlimit="4" stroke-width="3" stroke="#000" d="M17.395 18.849l-4.949 0.708 0.707-4.951 12.728-12.728c0.563-0.563 1.326-0.879 2.121-0.879 0.394 0 0.784 0.078 1.148 0.228s0.695 0.372 0.973 0.65c0.279 0.279 0.5 0.609 0.65 0.973s0.228 0.754 0.228 1.148c0 0.394-0.078 0.784-0.228 1.148s-0.372 0.695-0.65 0.973l-12.728 12.728z"></path>
<path fill="none" stroke-linejoin="round" stroke-linecap="round" stroke-miterlimit="4" stroke-width="3" stroke="#000" d="M24.465 3.291l4.243 4.243"></path>
<path fill="none" stroke-linejoin="round" stroke-linecap="round" stroke-miterlimit="4" stroke-width="3" stroke="#000" d="M25 19v10c0 0.53-0.211 1.039-0.586 1.414s-0.884 0.586-1.414 0.586h-20c-0.53 0-1.039-0.211-1.414-0.586s-0.586-0.884-0.586-1.414v-20c0-0.53 0.211-1.039 0.586-1.414s0.884-0.586 1.414-0.586h10"></path>
</svg>
