<!-- Generated by IcoMoon.io -->
<svg version="1.1" xmlns="http://www.w3.org/2000/svg" width="32" height="32" viewBox="0 0 32 32">
<title>dashboard-16px-1</title>
<path d="M4 2c-1.105 0-2 0.895-2 2v12c0 1.105 0.895 2 2 2h8c1.105 0 2-0.895 2-2v-12c0-1.105-0.895-2-2-2h-8zM20 2c-1.105 0-2 0.895-2 2v2c0 1.105 0.895 2 2 2h8c1.105 0 2-0.895 2-2v-2c0-1.105-0.895-2-2-2h-8zM2 24c0-1.105 0.895-2 2-2h8c1.105 0 2 0.895 2 2v4c0 1.105-0.895 2-2 2h-8c-1.105 0-2-0.895-2-2v-4zM20 12c-1.105 0-2 0.895-2 2v14c0 1.105 0.895 2 2 2h8c1.105 0 2-0.895 2-2v-14c0-1.105-0.895-2-2-2h-8z"></path>
</svg>
