<!-- Generated by IcoMoon.io -->
<svg version="1.1" xmlns="http://www.w3.org/2000/svg" width="40" height="32" viewBox="0 0 40 32">
<title>filter</title>
<path d="M19.875 6c-0.578-2.852-3.102-5-6.125-5s-5.547 2.148-6.125 5h-6.375c-0.69 0-1.25 0.56-1.25 1.25s0.56 1.25 1.25 1.25h6.375c0.578 2.852 3.102 5 6.125 5s5.547-2.148 6.125-5h18.875c0.69 0 1.25-0.56 1.25-1.25s-0.56-1.25-1.25-1.25h-18.875zM13.75 11c-2.070 0-3.75-1.68-3.75-3.75s1.68-3.75 3.75-3.75c2.070 0 3.75 1.68 3.75 3.75s-1.68 3.75-3.75 3.75z"></path>
<path d="M32.375 23.5c-0.578-2.852-3.102-5-6.125-5s-5.547 2.148-6.125 5h-18.875c-0.69 0-1.25 0.56-1.25 1.25s0.56 1.25 1.25 1.25h18.875c0.578 2.852 3.102 5 6.125 5s5.547-2.148 6.125-5h6.375c0.69 0 1.25-0.56 1.25-1.25s-0.56-1.25-1.25-1.25h-6.375zM26.25 28.5c-2.070 0-3.75-1.68-3.75-3.75s1.68-3.75 3.75-3.75c2.070 0 3.75 1.68 3.75 3.75s-1.68 3.75-3.75 3.75z"></path>
</svg>
