<!-- Generated by IcoMoon.io -->
<svg version="1.1" xmlns="http://www.w3.org/2000/svg" width="32" height="32" viewBox="0 0 32 32">
<title>Group-431</title>
<path fill="none" stroke-linejoin="miter" stroke-linecap="butt" stroke-miterlimit="4" stroke-width="2.6667" stroke="#000" d="M1.778 1.778v25.369M1.778 1.778h19.988v7.688M1.778 1.778l12.3 4.613v23.832l-12.3-3.075M1.778 27.147h19.988v-8.732"></path>
<path d="M30.85 15.476c0.347-0.347 0.347-0.91 0-1.257l-5.657-5.657c-0.347-0.347-0.91-0.347-1.257 0s-0.347 0.91 0 1.257l5.028 5.028-5.028 5.028c-0.347 0.347-0.347 0.91 0 1.257s0.91 0.347 1.257 0l5.657-5.657zM19.458 15.736h10.763v-1.778h-10.763v1.778z"></path>
</svg>
