<!-- Generated by IcoMoon.io -->
<svg version="1.1" xmlns="http://www.w3.org/2000/svg" width="33" height="32" viewBox="0 0 33 32">
<title>house-entrance-1</title>
<path fill="none" stroke-linejoin="round" stroke-linecap="round" stroke-miterlimit="4" stroke-width="2" stroke="#000" d="M24 2h-22c-1.105 0-2 0.895-2 2v26c0 1.105 0.895 2 2 2h22c1.105 0 2-0.895 2-2v-26c0-1.105-0.895-2-2-2z"></path>
<path fill="none" stroke-linejoin="round" stroke-linecap="round" stroke-miterlimit="4" stroke-width="2" stroke="#000" d="M16 17.591c3.026 0 5.48-2.453 5.48-5.48s-2.454-5.48-5.48-5.48c-3.027 0-5.48 2.453-5.48 5.48s2.453 5.48 5.48 5.48z"></path>
<path fill="none" stroke-linejoin="round" stroke-linecap="round" stroke-miterlimit="4" stroke-width="2" stroke="#000" d="M25 25.37c-0.864-1.639-2.158-3.011-3.744-3.968s-3.403-1.463-5.256-1.463-3.67 0.506-5.256 1.463c-1.586 0.957-2.881 2.329-3.744 3.968"></path>
</svg>
