<!-- Generated by IcoMoon.io -->
<svg version="1.1" xmlns="http://www.w3.org/2000/svg" width="32" height="32" viewBox="0 0 32 32">
<title>pie-line-graph-desktop-2</title>
<path fill="none" stroke-linejoin="round" stroke-linecap="round" stroke-miterlimit="4" stroke-width="2.6667" stroke="#000" d="M19.552 29.337h-7.111l0.889-5.333h5.333l0.889 5.333z"></path>
<path fill="none" stroke-linejoin="round" stroke-linecap="round" stroke-miterlimit="4" stroke-width="2.6667" stroke="#000" d="M9.774 29.337h12.444"></path>
<path fill="none" stroke-linejoin="round" stroke-linecap="round" stroke-miterlimit="4" stroke-width="2.6667" stroke="#000" d="M25.774 2.67h-19.555c-1.964 0-3.556 1.592-3.556 3.556v14.222c0 1.964 1.592 3.556 3.556 3.556h19.555c1.964 0 3.556-1.592 3.556-3.556v-14.222c0-1.964-1.592-3.556-3.556-3.556z"></path>
<path fill="none" stroke-linejoin="round" stroke-linecap="round" stroke-miterlimit="4" stroke-width="2.6667" stroke="#000" d="M2.663 15.115l4.705-4.704c0.083-0.083 0.181-0.148 0.288-0.193s0.224-0.068 0.34-0.068c0.117 0 0.232 0.023 0.34 0.068s0.206 0.11 0.288 0.193l2.298 2.298c0.083 0.083 0.181 0.148 0.288 0.193s0.224 0.068 0.34 0.068c0.117 0 0.232-0.023 0.34-0.068s0.206-0.11 0.288-0.193l4.704-4.705"></path>
<path fill="none" stroke-linejoin="round" stroke-linecap="round" stroke-miterlimit="4" stroke-width="2.6667" stroke="#000" d="M2.663 20.448h26.667"></path>
<path fill="none" stroke-linejoin="round" stroke-linecap="round" stroke-miterlimit="4" stroke-width="2.6667" stroke="#000" d="M18.663 13.337v2.667"></path>
<path fill="none" stroke-linejoin="round" stroke-linecap="round" stroke-miterlimit="4" stroke-width="2.6667" stroke="#000" d="M25.774 13.337v2.667"></path>
<path fill="none" stroke-linejoin="round" stroke-linecap="round" stroke-miterlimit="4" stroke-width="2.6667" stroke="#000" d="M22.219 10.67v5.333"></path>
</svg>
