<!-- Generated by IcoMoon.io -->
<svg version="1.1" xmlns="http://www.w3.org/2000/svg" width="32" height="32" viewBox="0 0 32 32">
<title>tags-settings-1</title>
<path fill="none" stroke-linejoin="round" stroke-linecap="round" stroke-miterlimit="4" stroke-width="3" stroke="#000" d="M9.172 25.585l-7.172-7.171c-0.186-0.186-0.333-0.406-0.434-0.649s-0.152-0.503-0.152-0.766c0-0.263 0.052-0.523 0.152-0.766s0.248-0.463 0.434-0.649l14-14c0.186-0.186 0.406-0.333 0.649-0.433s0.503-0.152 0.766-0.152h7.171c0.53 0 1.039 0.211 1.414 0.586s0.586 0.884 0.586 1.414v7.172"></path>
<path fill="none" stroke-linejoin="round" stroke-linecap="round" stroke-miterlimit="4" stroke-width="3" stroke="#000" d="M22.086 6.001c0-0.133-0.053-0.26-0.147-0.354s-0.221-0.147-0.353-0.147c-0.099 0-0.196 0.029-0.278 0.084s-0.146 0.133-0.184 0.225c-0.038 0.092-0.048 0.192-0.028 0.289s0.067 0.186 0.137 0.256 0.159 0.118 0.256 0.137c0.097 0.019 0.198 0.009 0.289-0.029s0.17-0.102 0.224-0.184c0.055-0.082 0.084-0.179 0.084-0.278z"></path>
<path fill="none" stroke-linejoin="round" stroke-linecap="round" stroke-miterlimit="4" stroke-width="3" stroke="#000" d="M22.586 24c1.105 0 2-0.895 2-2s-0.895-2-2-2c-1.105 0-2 0.895-2 2s0.895 2 2 2z"></path>
<path fill="none" stroke-linejoin="round" stroke-linecap="round" stroke-miterlimit="4" stroke-width="3" stroke="#000" d="M24.284 14.267l0.589 1.937c0.097 0.321 0.313 0.594 0.603 0.762s0.634 0.221 0.961 0.146l1.964-0.456c0.372-0.084 0.761-0.046 1.111 0.107s0.64 0.415 0.83 0.746 0.269 0.714 0.225 1.093c-0.044 0.379-0.207 0.734-0.467 1.013l-1.373 1.481c-0.229 0.247-0.357 0.571-0.357 0.908s0.128 0.661 0.357 0.908l1.373 1.481c0.258 0.28 0.419 0.634 0.461 1.012s-0.038 0.759-0.228 1.089c-0.19 0.329-0.48 0.59-0.828 0.743s-0.736 0.191-1.107 0.108l-1.964-0.455c-0.327-0.076-0.671-0.024-0.961 0.145s-0.506 0.441-0.603 0.763l-0.587 1.935c-0.11 0.365-0.335 0.685-0.641 0.913s-0.677 0.35-1.059 0.35-0.753-0.123-1.059-0.35c-0.306-0.228-0.531-0.548-0.641-0.913l-0.589-1.936c-0.097-0.322-0.313-0.594-0.603-0.763s-0.635-0.22-0.962-0.145l-1.963 0.455c-0.372 0.085-0.762 0.049-1.112-0.104s-0.642-0.414-0.832-0.745c-0.191-0.331-0.27-0.714-0.226-1.094s0.207-0.735 0.468-1.014l1.373-1.481c0.229-0.247 0.357-0.571 0.357-0.908s-0.128-0.661-0.357-0.908l-1.373-1.481c-0.26-0.279-0.424-0.634-0.467-1.013s0.035-0.762 0.225-1.093c0.19-0.331 0.481-0.592 0.83-0.746s0.738-0.191 1.111-0.107l1.963 0.456c0.327 0.073 0.67 0.020 0.96-0.148s0.506-0.44 0.605-0.76l0.589-1.937c0.109-0.367 0.334-0.688 0.641-0.916s0.679-0.351 1.062-0.351c0.383 0.001 0.755 0.125 1.061 0.354s0.53 0.551 0.638 0.918v0z"></path>
</svg>
