<!-- Generated by IcoMoon.io -->
<svg version="1.1" xmlns="http://www.w3.org/2000/svg" width="41" height="32" viewBox="0 0 41 32">
<title>twiter</title>
<path fill="#4b5ffa" d="M39.429 0.571c-1.642 1.158-3.459 2.044-5.383 2.623-1.032-1.187-2.405-2.029-3.931-2.41s-3.133-0.286-4.603 0.275c-1.47 0.561-2.732 1.56-3.616 2.862s-1.346 2.843-1.325 4.416v1.714c-3.013 0.078-5.998-0.59-8.69-1.945s-5.007-3.354-6.739-5.821c0 0-6.857 15.429 8.571 22.286-3.53 2.397-7.736 3.598-12 3.429 15.429 8.571 34.286 0 34.286-19.714-0.002-0.478-0.048-0.954-0.137-1.423 1.75-1.725 2.984-3.904 3.566-6.291z"></path>
</svg>
