<svg width="130" height="36" viewBox="0 0 130 36" fill="none" xmlns="http://www.w3.org/2000/svg">
<path d="M40.847 29.1757H37.5885C37.5694 29.1758 37.5505 29.1724 37.5328 29.1657C37.5152 29.159 37.4992 29.1492 37.4858 29.1367L23.2771 16.1768L21.4426 14.5052L20.6016 13.7382C20.5883 13.7257 20.5724 13.7156 20.5547 13.7088C20.5371 13.702 20.5181 13.6985 20.499 13.6985C20.4798 13.6985 20.4608 13.702 20.4432 13.7088C20.4256 13.7156 20.4096 13.7257 20.3963 13.7382L19.5568 14.5039L17.7222 16.1768L14.9825 18.6739L3.51351 29.1341C3.50014 29.1466 3.48416 29.1564 3.46653 29.1631C3.4489 29.1698 3.42998 29.1732 3.41088 29.1731H0.149485C0.120135 29.1744 0.0910597 29.1674 0.0662393 29.1531C0.0414189 29.1387 0.0220664 29.1178 0.010831 29.093C-0.000404508 29.0682 -0.00297384 29.0409 0.00347465 29.0148C0.00992314 28.9886 0.0250743 28.9649 0.0468542 28.9469L20.3978 10.3923C20.4111 10.3797 20.427 10.3697 20.4446 10.3629C20.4623 10.3561 20.4812 10.3525 20.5004 10.3525C20.5196 10.3525 20.5385 10.3561 20.5561 10.3629C20.5738 10.3697 20.5897 10.3797 20.603 10.3923L22.3335 11.9717L23.2771 12.8309L25.1117 14.5039L40.9497 28.9469C40.9726 28.9647 40.9888 28.9886 40.9959 29.0152C41.0031 29.0419 41.0008 29.0699 40.9894 29.0953C40.978 29.1207 40.9581 29.1421 40.9325 29.1566C40.9069 29.171 40.877 29.1777 40.847 29.1757Z" fill="#4B5FFA"/>
<path d="M35.8397 29.1758H32.4599C32.44 29.1759 32.4204 29.1724 32.4021 29.1655C32.3838 29.1586 32.3673 29.1485 32.3534 29.1358L23.3346 20.9991L21.448 19.2958L20.6023 18.5328C20.5886 18.5199 20.572 18.5096 20.5537 18.5026C20.5354 18.4956 20.5158 18.492 20.4959 18.492C20.476 18.492 20.4564 18.4956 20.4381 18.5026C20.4198 18.5096 20.4032 18.5199 20.3894 18.5328L19.5452 19.2944L8.63986 29.1331C8.62599 29.1459 8.60942 29.156 8.59114 29.1628C8.57285 29.1697 8.55322 29.1732 8.53341 29.1731H5.15505C5.12461 29.1744 5.09445 29.1673 5.06871 29.1525C5.04296 29.1378 5.02289 29.1163 5.01123 29.0909C4.99958 29.0655 4.99692 29.0374 5.0036 29.0106C5.01029 28.9838 5.02601 28.9595 5.0486 28.941L15.7544 19.2824L18.5946 16.7201L20.3924 15.0994C20.4062 15.0865 20.4227 15.0762 20.441 15.0692C20.4593 15.0622 20.479 15.0586 20.4988 15.0586C20.5187 15.0586 20.5384 15.0622 20.5567 15.0692C20.575 15.0762 20.5915 15.0865 20.6053 15.0994L22.4002 16.7201L23.3523 17.5777L25.2419 19.2824L35.9476 28.941C35.9716 28.9593 35.9885 28.9839 35.9958 29.0114C36.0032 29.0389 36.0007 29.0678 35.9887 29.094C35.9767 29.1201 35.9558 29.1421 35.929 29.1568C35.9022 29.1715 35.8709 29.1782 35.8397 29.1758Z" fill="#4B5FFA"/>
<path d="M29.8495 28.2351H26.5941C26.5749 28.2352 26.5558 28.2319 26.5381 28.2254C26.5203 28.2189 26.5042 28.2093 26.4908 28.1973L20.6083 23.0298C20.5949 23.0176 20.5789 23.0079 20.5611 23.0012C20.5434 22.9946 20.5243 22.9912 20.505 22.9912C20.4857 22.9912 20.4666 22.9946 20.4489 23.0012C20.4311 23.0079 20.4151 23.0176 20.4017 23.0298L14.5193 28.1973C14.5058 28.2093 14.4897 28.2189 14.472 28.2254C14.4542 28.2319 14.4352 28.2352 14.4159 28.2351H11.1505C11.1209 28.2363 11.0917 28.2296 11.0667 28.2156C11.0417 28.2017 11.0222 28.1814 11.0109 28.1574C10.9996 28.1334 10.997 28.1069 11.0035 28.0815C11.01 28.0562 11.0252 28.0332 11.0472 28.0158L20.3974 19.8032C20.4108 19.791 20.4268 19.7813 20.4446 19.7747C20.4623 19.7681 20.4814 19.7646 20.5007 19.7646C20.52 19.7646 20.5391 19.7681 20.5568 19.7747C20.5746 19.7813 20.5906 19.791 20.604 19.8032L29.9528 28.0158C29.9748 28.0332 29.99 28.0562 29.9965 28.0815C30.003 28.1069 30.0004 28.1334 29.9891 28.1574C29.9778 28.1814 29.9583 28.2017 29.9333 28.2156C29.9083 28.2296 29.8791 28.2363 29.8495 28.2351Z" fill="#4B5FFA"/>
<path d="M47.56 26.506C47.56 26.766 47.794 27 48.054 27H50.056C50.42 27 50.654 26.87 50.654 26.506V20.214C50.836 19.85 51.46 19.148 52.5 19.148C52.786 19.148 53.176 19.278 53.254 19.304C53.462 19.408 53.722 19.304 53.852 19.07L54.814 17.38C55.126 16.73 54.034 16.34 52.812 16.34C51.2 16.34 50.238 17.432 49.874 17.952L49.51 16.938C49.432 16.73 49.276 16.6 49.042 16.6H48.054C47.794 16.6 47.56 16.808 47.56 17.094V26.506ZM55.5652 21.8C55.5652 24.79 57.7752 27.26 60.8952 27.26C62.5852 27.26 63.9112 26.636 64.7692 25.83C65.0292 25.622 64.9772 25.336 64.7952 25.154L63.7292 23.932C63.5472 23.724 63.3132 23.776 63.0532 23.932C62.5852 24.27 61.8312 24.582 61.0252 24.582C59.5172 24.582 58.6072 23.386 58.5292 22.32H65.1852C65.4192 22.32 65.6532 22.138 65.6792 21.878C65.7052 21.696 65.7312 21.358 65.7312 21.176C65.7312 18.368 63.5472 16.34 60.8692 16.34C57.7752 16.34 55.5652 18.862 55.5652 21.8ZM58.7632 20.5C58.8932 19.512 59.7512 18.732 60.7912 18.732C61.7792 18.732 62.6112 19.538 62.6892 20.5H58.7632ZM67.9233 26.506C67.9233 26.766 68.1573 27 68.4173 27H70.3413C70.8353 27 70.9913 26.87 70.9913 26.506V20.786C71.2513 20.084 72.0833 19.148 73.4353 19.148C74.6833 19.148 75.3853 20.006 75.3853 21.358V26.506C75.3853 26.766 75.5933 27 75.8793 27H78.0113C78.2713 27 78.5053 26.766 78.5053 26.506V21.514C78.5053 18.81 77.1793 16.34 73.8773 16.34C71.8753 16.34 70.6013 17.458 70.2113 17.874L69.8473 16.912C69.7693 16.73 69.6393 16.6 69.4053 16.6H68.4173C68.1573 16.6 67.9233 16.808 67.9233 17.094V26.506ZM80.6517 23.698C80.6517 25.908 82.0817 27.26 84.1617 27.26C85.7737 27.26 86.7357 26.48 87.3337 25.934L87.6457 26.636C87.7757 26.922 87.9057 27 88.0877 27H89.0237C89.2837 27 89.5177 26.766 89.5177 26.506V20.864C89.5177 18.03 88.7637 16.34 85.5137 16.34C83.8497 16.34 82.1857 16.756 81.9777 16.834C81.7437 16.912 81.5357 17.094 81.6137 17.484L81.8477 18.836C81.8997 19.174 82.0817 19.408 82.4457 19.304C83.0437 19.122 84.3957 18.914 85.3577 18.914C86.3197 18.914 86.7357 19.382 86.7097 20.708C86.7097 20.708 85.8517 20.422 84.8117 20.422C82.1597 20.422 80.6517 21.852 80.6517 23.698ZM83.5117 23.698C83.5117 22.866 84.1877 22.294 85.2017 22.294C85.9557 22.294 86.6577 22.606 86.6577 22.606V24.036C86.5017 24.348 85.6957 25.05 84.8637 25.05C84.0577 25.05 83.5117 24.478 83.5117 23.698ZM91.4094 26.22C91.4094 28.118 92.9174 28.82 93.3594 28.95V29.028C93.0994 29.184 91.7994 29.938 91.7994 31.498C91.7994 33.162 93.2554 35.06 97.1034 35.06C100.873 35.06 102.797 33.032 102.797 30.64C102.797 28.352 100.873 27 98.5074 27H95.1794C94.6074 27 94.1394 26.662 94.1394 26.116C94.1394 25.492 94.7374 25.128 95.1014 25.128C95.5174 25.128 96.1934 25.336 97.1814 25.336C99.9114 25.336 101.627 23.308 101.627 21.254C101.627 19.408 100.587 18.602 100.587 18.602L102.043 18.134C102.225 18.082 102.329 17.874 102.329 17.692V16.834C102.329 16.548 102.121 16.34 101.835 16.34H97.1034C94.5294 16.34 92.5794 18.446 92.5794 20.864C92.5794 22.424 93.3594 23.308 93.3594 23.308C93.3594 23.308 91.4094 24.192 91.4094 26.22ZM95.3614 20.994C95.3614 19.902 96.1414 19.122 97.1814 19.122C98.2474 19.122 98.9754 19.902 98.9754 20.994C98.9754 22.086 98.2474 22.866 97.1814 22.866C96.1414 22.866 95.3614 22.086 95.3614 20.994ZM94.7894 30.926C94.7894 30.12 95.5954 29.756 95.9074 29.652C96.4534 29.574 97.0254 29.548 97.5974 29.548C99.1314 29.548 99.4954 30.354 99.4954 30.822C99.4954 31.81 98.5334 32.46 97.0774 32.46C95.6734 32.46 94.7894 31.836 94.7894 30.926ZM103.731 21.8C103.731 24.79 105.941 27.26 109.061 27.26C110.751 27.26 112.077 26.636 112.935 25.83C113.195 25.622 113.143 25.336 112.961 25.154L111.895 23.932C111.713 23.724 111.479 23.776 111.219 23.932C110.751 24.27 109.997 24.582 109.191 24.582C107.683 24.582 106.773 23.386 106.695 22.32H113.351C113.585 22.32 113.819 22.138 113.845 21.878C113.871 21.696 113.897 21.358 113.897 21.176C113.897 18.368 111.713 16.34 109.035 16.34C105.941 16.34 103.731 18.862 103.731 21.8ZM106.929 20.5C107.059 19.512 107.917 18.732 108.957 18.732C109.945 18.732 110.777 19.538 110.855 20.5H106.929ZM116.089 26.506C116.089 26.766 116.323 27 116.583 27H118.585C118.949 27 119.183 26.87 119.183 26.506V20.214C119.365 19.85 119.989 19.148 121.029 19.148C121.315 19.148 121.705 19.278 121.783 19.304C121.991 19.408 122.251 19.304 122.381 19.07L123.343 17.38C123.655 16.73 122.563 16.34 121.341 16.34C119.729 16.34 118.767 17.432 118.403 17.952L118.039 16.938C117.961 16.73 117.805 16.6 117.571 16.6H116.583C116.323 16.6 116.089 16.808 116.089 17.094V26.506ZM123.691 25.128C123.691 26.298 124.653 27.26 125.823 27.26C126.993 27.26 127.981 26.298 127.981 25.128C127.981 23.958 126.993 22.97 125.823 22.97C124.653 22.97 123.691 23.958 123.691 25.128Z" fill="#191E23"/>
</svg>
