<svg aria-hidden="true" style="position: absolute; width: 0; height: 0; overflow: hidden;" version="1.1" xmlns="http://www.w3.org/2000/svg" xmlns:xlink="http://www.w3.org/1999/xlink">
<defs>
<symbol id="icon-linkedin" viewBox="0 0 32 32">
<path fill="#4b5ffa" style="fill: var(--color1, #4b5ffa)" d="M30.125 0.625h-28.25c-0.688 0-1.25 0.563-1.25 1.25v28.25c0 0.687 0.563 1.25 1.25 1.25h28.25c0.687 0 1.25-0.563 1.25-1.25v-28.25c0-0.688-0.563-1.25-1.25-1.25z"></path>
<path fill="#ebf0ff" style="fill: var(--color2, #ebf0ff)" d="M10.373 7.749c0 1.476-1.196 2.672-2.672 2.672s-2.672-1.196-2.672-2.672c0-1.476 1.196-2.672 2.672-2.672s2.672 1.196 2.672 2.672z"></path>
<path fill="#ebf0ff" style="fill: var(--color2, #ebf0ff)" d="M5.404 12.298h4.594v14.625h-4.594v-14.625z"></path>
<path fill="#ebf0ff" style="fill: var(--color2, #ebf0ff)" d="M12.75 12.298v14.625h4.594v-8.441c0-1.384 1.132-2.516 2.516-2.516s2.516 1.132 2.516 2.516v8.441h4.594v-9.484c0-2.999-2.454-5.453-5.453-5.453-1.805 0-3.412 0.889-4.406 2.251v-1.938h-4.359z"></path>
<path fill="#000" style="fill: var(--color3, #000)" d="M23.875 30.75h-22c-0.345 0-0.625-0.28-0.625-0.625v-28.25c0-0.345 0.28-0.625 0.625-0.625h1.25c0.345 0 0.625-0.28 0.625-0.625s-0.28-0.625-0.625-0.625h-1.25c-1.034 0-1.875 0.841-1.875 1.875v28.25c0 1.034 0.841 1.875 1.875 1.875h22c0.345 0 0.625-0.28 0.625-0.625s-0.28-0.625-0.625-0.625z"></path>
<path fill="#000" style="fill: var(--color3, #000)" d="M30.125 0h-22c-0.345 0-0.625 0.28-0.625 0.625s0.28 0.625 0.625 0.625h22c0.345 0 0.625 0.28 0.625 0.625v28.25c0 0.345-0.28 0.625-0.625 0.625h-1.25c-0.345 0-0.625 0.28-0.625 0.625s0.28 0.625 0.625 0.625h1.25c1.034 0 1.875-0.841 1.875-1.875v-28.25c0-1.034-0.841-1.875-1.875-1.875z"></path>
<path fill="#000" style="fill: var(--color3, #000)" d="M5.625 1.25c0.345 0 0.625-0.28 0.625-0.625s-0.28-0.625-0.625-0.625h-0c-0.345 0-0.625 0.28-0.625 0.625s0.28 0.625 0.625 0.625z"></path>
<path fill="#000" style="fill: var(--color3, #000)" d="M26.375 30.75h-0c-0.345 0-0.625 0.28-0.625 0.625s0.28 0.625 0.625 0.625c0.345 0 0.625-0.28 0.625-0.625s-0.28-0.625-0.625-0.625z"></path>
</symbol>
<symbol id="icon-facebook" viewBox="0 0 18 32">
<path fill="#4b5ffa" style="fill: var(--color1, #4b5ffa)" d="M17.778 0h-4.848c-2.143 0-4.199 0.843-5.714 2.343s-2.367 3.535-2.367 5.657v4.8h-4.848v6.4h4.848v12.8h6.465v-12.8h4.848l1.616-6.4h-6.465v-4.8c0-0.424 0.17-0.831 0.473-1.131s0.714-0.469 1.143-0.469h4.848v-6.4z"></path>
</symbol>
<symbol id="icon-instagram" viewBox="0 0 32 32">
<path fill="#4b5ffa" style="fill: var(--color1, #4b5ffa)" d="M22.667 2.667h-13.333c-3.682 0-6.667 2.985-6.667 6.667v13.333c0 3.682 2.985 6.667 6.667 6.667h13.333c3.682 0 6.667-2.985 6.667-6.667v-13.333c0-3.682-2.985-6.667-6.667-6.667z"></path>
<path fill="#c2dcff" style="fill: var(--color4, #c2dcff)" d="M21.335 15.159c0.164 1.11-0.025 2.243-0.542 3.239s-1.334 1.803-2.336 2.308c-1.002 0.504-2.138 0.68-3.245 0.502s-2.131-0.701-2.924-1.494c-0.793-0.793-1.316-1.816-1.494-2.924s-0.003-2.243 0.502-3.245c0.504-1.002 1.312-1.819 2.308-2.336s2.129-0.706 3.239-0.542c1.132 0.168 2.18 0.695 2.989 1.504s1.337 1.857 1.505 2.989z"></path>
<path fill="none" stroke="#c2dcff" style="stroke: var(--color4, #c2dcff)" stroke-linejoin="round" stroke-linecap="round" stroke-miterlimit="4" stroke-width="3.5556" d="M23.333 8.667h0.013"></path>
</symbol>
<symbol id="icon-slider" viewBox="0 0 21 32">
<path fill="#4b5ffa" style="fill: var(--color1, #4b5ffa)" d="M0 11.812c0-0.738 0.268-1.451 0.754-2.007l7.619-8.707c1.214-1.388 3.373-1.388 4.587 0l7.619 8.707c0.486 0.556 0.754 1.269 0.754 2.007v17.141c0 1.683-1.364 3.048-3.048 3.048h-15.238c-1.683 0-3.048-1.364-3.048-3.048v-17.141z"></path>
</symbol>
<symbol id="icon-twiter" viewBox="0 0 41 32">
<path fill="#4b5ffa" style="fill: var(--color1, #4b5ffa)" d="M39.429 0.571c-1.642 1.158-3.459 2.044-5.383 2.623-1.032-1.187-2.405-2.029-3.931-2.41s-3.133-0.286-4.603 0.275c-1.47 0.561-2.732 1.56-3.616 2.862s-1.346 2.843-1.325 4.416v1.714c-3.013 0.078-5.998-0.59-8.69-1.945s-5.007-3.354-6.739-5.821c0 0-6.857 15.429 8.571 22.286-3.53 2.397-7.736 3.598-12 3.429 15.429 8.571 34.286 0 34.286-19.714-0.002-0.478-0.048-0.954-0.137-1.423 1.75-1.725 2.984-3.904 3.566-6.291z"></path>
</symbol>
<symbol id="icon-whats-app" viewBox="0 0 30 32">
<path fill="#4b5ffa" style="fill: var(--color1, #4b5ffa)" d="M0.694 31.088l2.049-7.841c-1.264-2.295-1.929-4.899-1.928-7.565 0.003-8.343 6.483-15.131 14.444-15.131 3.864 0.002 7.49 1.578 10.217 4.438s4.228 6.662 4.227 10.705c-0.003 8.344-6.483 15.132-14.443 15.132-0.001 0 0 0 0 0h-0.006c-2.417-0.001-4.792-0.637-6.902-1.842l-7.657 2.104z"></path>
</symbol>
<symbol id="icon-arr-down-2" viewBox="0 0 53 32">
<path stroke-linejoin="round" stroke-linecap="round" stroke-miterlimit="4" stroke-width="10.6667" d="M8 6.667l18.667 18.667 18.667-18.667"></path>
</symbol>
<symbol id="icon-arr-down" viewBox="0 0 53 32">
<path stroke-linejoin="round" stroke-linecap="round" stroke-miterlimit="4" stroke-width="10.6667" d="M8 6.667l18.667 18.667 18.667-18.667"></path>
</symbol>
<symbol id="icon-filter" viewBox="0 0 40 32">
<path d="M19.875 6c-0.578-2.852-3.102-5-6.125-5s-5.547 2.148-6.125 5h-6.375c-0.69 0-1.25 0.56-1.25 1.25s0.56 1.25 1.25 1.25h6.375c0.578 2.852 3.102 5 6.125 5s5.547-2.148 6.125-5h18.875c0.69 0 1.25-0.56 1.25-1.25s-0.56-1.25-1.25-1.25h-18.875zM13.75 11c-2.070 0-3.75-1.68-3.75-3.75s1.68-3.75 3.75-3.75c2.070 0 3.75 1.68 3.75 3.75s-1.68 3.75-3.75 3.75z"></path>
<path d="M32.375 23.5c-0.578-2.852-3.102-5-6.125-5s-5.547 2.148-6.125 5h-18.875c-0.69 0-1.25 0.56-1.25 1.25s0.56 1.25 1.25 1.25h18.875c0.578 2.852 3.102 5 6.125 5s5.547-2.148 6.125-5h6.375c0.69 0 1.25-0.56 1.25-1.25s-0.56-1.25-1.25-1.25h-6.375zM26.25 28.5c-2.070 0-3.75-1.68-3.75-3.75s1.68-3.75 3.75-3.75c2.070 0 3.75 1.68 3.75 3.75s-1.68 3.75-3.75 3.75z"></path>
</symbol>
<symbol id="icon-arr-left" viewBox="0 0 32 32">
<path stroke-linejoin="round" stroke-linecap="round" stroke-miterlimit="4" stroke-width="4.1739" d="M22.957 29.913l-13.913-13.913 13.913-13.913"></path>
</symbol>
<symbol id="icon-arr-right" viewBox="0 0 32 32">
<path stroke-linejoin="round" stroke-linecap="round" stroke-miterlimit="4" stroke-width="4.1739" d="M9.043 29.913l13.913-13.913-13.913-13.913"></path>
</symbol>
<symbol id="icon-check" viewBox="0 0 32 32">
<path stroke-linejoin="round" stroke-linecap="round" stroke-miterlimit="4" stroke-width="5.3333" d="M2.667 19.333l6 6 20-20"></path>
</symbol>
<symbol id="icon-copy-1" viewBox="0 0 32 32">
<path stroke-linejoin="round" stroke-linecap="round" stroke-miterlimit="4" stroke-width="2.6667" d="M26.667 12h-12c-1.473 0-2.667 1.194-2.667 2.667v12c0 1.473 1.194 2.667 2.667 2.667h12c1.473 0 2.667-1.194 2.667-2.667v-12c0-1.473-1.194-2.667-2.667-2.667z"></path>
<path stroke-linejoin="round" stroke-linecap="round" stroke-miterlimit="4" stroke-width="2.6667" d="M6.667 20h-1.333c-0.707 0-1.386-0.281-1.886-0.781s-0.781-1.178-0.781-1.886v-12c0-0.707 0.281-1.386 0.781-1.886s1.178-0.781 1.886-0.781h12c0.707 0 1.385 0.281 1.886 0.781s0.781 1.178 0.781 1.886v1.333"></path>
</symbol>
<symbol id="icon-dashboard-16px-1" viewBox="0 0 32 32">
<path d="M4 2c-1.105 0-2 0.895-2 2v12c0 1.105 0.895 2 2 2h8c1.105 0 2-0.895 2-2v-12c0-1.105-0.895-2-2-2h-8zM20 2c-1.105 0-2 0.895-2 2v2c0 1.105 0.895 2 2 2h8c1.105 0 2-0.895 2-2v-2c0-1.105-0.895-2-2-2h-8zM2 24c0-1.105 0.895-2 2-2h8c1.105 0 2 0.895 2 2v4c0 1.105-0.895 2-2 2h-8c-1.105 0-2-0.895-2-2v-4zM20 12c-1.105 0-2 0.895-2 2v14c0 1.105 0.895 2 2 2h8c1.105 0 2-0.895 2-2v-14c0-1.105-0.895-2-2-2h-8z"></path>
</symbol>
<symbol id="icon-Group-431" viewBox="0 0 32 32">
<path stroke-linejoin="miter" stroke-linecap="butt" stroke-miterlimit="4" stroke-width="2.6667" d="M1.778 1.778v25.369M1.778 1.778h19.988v7.688M1.778 1.778l12.3 4.613v23.832l-12.3-3.075M1.778 27.147h19.988v-8.732"></path>
<path d="M30.85 15.476c0.347-0.347 0.347-0.91 0-1.257l-5.657-5.657c-0.347-0.347-0.91-0.347-1.257 0s-0.347 0.91 0 1.257l5.028 5.028-5.028 5.028c-0.347 0.347-0.347 0.91 0 1.257s0.91 0.347 1.257 0l5.657-5.657zM19.458 15.736h10.763v-1.778h-10.763v1.778z"></path>
</symbol>
<symbol id="icon-home" viewBox="0 0 32 32">
<path stroke-linejoin="round" stroke-linecap="round" stroke-miterlimit="4" stroke-width="2.2857" d="M4 12.001l12-9.333 12 9.333v14.667c0 0.707-0.281 1.386-0.781 1.886s-1.178 0.781-1.886 0.781h-18.667c-0.707 0-1.386-0.281-1.886-0.781s-0.781-1.178-0.781-1.886v-14.667z"></path>
<path stroke-linejoin="round" stroke-linecap="round" stroke-miterlimit="4" stroke-width="2.2857" d="M12 29.333v-13.333h8v13.333"></path>
</symbol>
<symbol id="icon-house-entrance-1" viewBox="0 0 33 32">
<path stroke-linejoin="round" stroke-linecap="round" stroke-miterlimit="4" stroke-width="2" d="M24 2h-22c-1.105 0-2 0.895-2 2v26c0 1.105 0.895 2 2 2h22c1.105 0 2-0.895 2-2v-26c0-1.105-0.895-2-2-2z"></path>
<path stroke-linejoin="round" stroke-linecap="round" stroke-miterlimit="4" stroke-width="2" d="M16 17.591c3.026 0 5.48-2.453 5.48-5.48s-2.454-5.48-5.48-5.48c-3.027 0-5.48 2.453-5.48 5.48s2.453 5.48 5.48 5.48z"></path>
<path stroke-linejoin="round" stroke-linecap="round" stroke-miterlimit="4" stroke-width="2" d="M25 25.37c-0.864-1.639-2.158-3.011-3.744-3.968s-3.403-1.463-5.256-1.463-3.67 0.506-5.256 1.463c-1.586 0.957-2.881 2.329-3.744 3.968"></path>
</symbol>
<symbol id="icon-like" viewBox="0 0 32 32">
<path d="M27.786 5.348c-0.681-0.681-1.49-1.222-2.38-1.591s-1.844-0.559-2.807-0.559c-0.963 0-1.917 0.19-2.807 0.559s-1.699 0.909-2.38 1.591l-1.413 1.413-1.413-1.413c-1.376-1.376-3.241-2.148-5.187-2.148s-3.811 0.773-5.187 2.148c-1.376 1.376-2.148 3.241-2.148 5.187s0.773 3.811 2.148 5.187l11.787 11.787 11.787-11.787c0.681-0.681 1.222-1.49 1.591-2.38s0.559-1.844 0.559-2.807c0-0.963-0.19-1.917-0.559-2.807s-0.909-1.699-1.591-2.38v0z"></path>
<path stroke-linejoin="round" stroke-linecap="round" stroke-miterlimit="4" stroke-width="1.6" d="M27.786 5.348c-0.681-0.681-1.49-1.222-2.38-1.591s-1.844-0.559-2.807-0.559c-0.963 0-1.917 0.19-2.807 0.559s-1.699 0.909-2.38 1.591l-1.413 1.413-1.413-1.413c-1.376-1.376-3.241-2.148-5.187-2.148s-3.811 0.773-5.187 2.148c-1.376 1.376-2.148 3.241-2.148 5.187s0.773 3.811 2.148 5.187l11.787 11.787 11.787-11.787c0.681-0.681 1.222-1.49 1.591-2.38s0.559-1.844 0.559-2.807c0-0.963-0.19-1.917-0.559-2.807s-0.909-1.699-1.591-2.38v0z"></path>
</symbol>
<symbol id="icon-money-wallet-1" viewBox="0 0 32 32">
<path stroke-linejoin="round" stroke-linecap="round" stroke-miterlimit="4" stroke-width="3" d="M29 24.666v2c0 1.061-0.421 2.078-1.172 2.828s-1.768 1.172-2.828 1.172h-20c-1.061 0-2.078-0.421-2.828-1.172s-1.172-1.768-1.172-2.828v-14c0-1.061 0.421-2.078 1.172-2.828s1.768-1.172 2.828-1.172h20c1.061 0 2.078 0.421 2.828 1.172s1.172 1.768 1.172 2.828v2"></path>
<path stroke-linejoin="round" stroke-linecap="round" stroke-miterlimit="4" stroke-width="3" d="M25 8.666l-3.105-6.211c-0.117-0.235-0.28-0.445-0.478-0.617s-0.429-0.304-0.678-0.387c-0.249-0.083-0.512-0.116-0.774-0.098s-0.518 0.089-0.753 0.206l-14.211 7.105"></path>
<path stroke-linejoin="round" stroke-linecap="round" stroke-miterlimit="4" stroke-width="3" d="M29 24.666c0.53 0 1.039-0.211 1.414-0.586s0.586-0.884 0.586-1.414v-6c0-0.53-0.211-1.039-0.586-1.414s-0.884-0.586-1.414-0.586h-5c-1.326 0-2.598 0.527-3.536 1.464s-1.464 2.209-1.464 3.536c0 1.326 0.527 2.598 1.464 3.536s2.21 1.464 3.536 1.464h5z"></path>
<path stroke-linejoin="round" stroke-linecap="round" stroke-miterlimit="4" stroke-width="3" d="M24 19.166c0.099 0 0.196 0.029 0.278 0.084s0.146 0.133 0.184 0.224c0.038 0.091 0.048 0.192 0.028 0.289s-0.067 0.186-0.137 0.256c-0.070 0.070-0.159 0.118-0.256 0.137s-0.198 0.009-0.289-0.028-0.169-0.102-0.224-0.184c-0.055-0.082-0.084-0.179-0.084-0.278 0-0.133 0.053-0.26 0.146-0.354s0.221-0.146 0.354-0.146"></path>
</symbol>
<symbol id="icon-money-wallet-2" viewBox="0 0 32 32">
<path stroke-linejoin="round" stroke-linecap="round" stroke-miterlimit="4" stroke-width="2.6667" d="M27.556 23.703v1.778c0 0.943-0.375 1.847-1.041 2.514s-1.571 1.041-2.514 1.041h-17.778c-0.943 0-1.847-0.375-2.514-1.041s-1.041-1.571-1.041-2.514v-12.444c0-0.943 0.375-1.847 1.041-2.514s1.571-1.041 2.514-1.041h17.778c0.943 0 1.847 0.375 2.514 1.041s1.041 1.571 1.041 2.514v1.778"></path>
<path stroke-linejoin="round" stroke-linecap="round" stroke-miterlimit="4" stroke-width="2.6667" d="M24 9.481l-2.76-5.521c-0.104-0.209-0.249-0.395-0.425-0.548s-0.381-0.27-0.603-0.344c-0.221-0.074-0.455-0.103-0.688-0.087s-0.46 0.079-0.669 0.183l-12.632 6.316"></path>
<path stroke-linejoin="round" stroke-linecap="round" stroke-miterlimit="4" stroke-width="2.6667" d="M27.556 23.703c0.471 0 0.924-0.187 1.257-0.521s0.521-0.786 0.521-1.257v-5.333c0-0.471-0.187-0.924-0.521-1.257s-0.786-0.521-1.257-0.521h-4.444c-1.179 0-2.309 0.468-3.143 1.302s-1.302 1.964-1.302 3.143 0.468 2.309 1.302 3.143c0.834 0.833 1.964 1.302 3.143 1.302h4.444z"></path>
<path stroke-linejoin="round" stroke-linecap="round" stroke-miterlimit="4" stroke-width="2.6667" d="M23.111 18.814c0.088 0 0.174 0.026 0.247 0.075s0.13 0.118 0.164 0.2c0.034 0.081 0.042 0.171 0.025 0.257s-0.060 0.166-0.122 0.228c-0.062 0.062-0.141 0.105-0.228 0.122s-0.176 0.008-0.257-0.025c-0.081-0.034-0.151-0.091-0.199-0.164s-0.075-0.159-0.075-0.247c0-0.118 0.047-0.231 0.13-0.315s0.196-0.131 0.314-0.131"></path>
</symbol>
<symbol id="icon-pencil-write-1" viewBox="0 0 32 32">
<path stroke-linejoin="round" stroke-linecap="round" stroke-miterlimit="4" stroke-width="3" d="M17.395 18.849l-4.949 0.708 0.707-4.951 12.728-12.728c0.563-0.563 1.326-0.879 2.121-0.879 0.394 0 0.784 0.078 1.148 0.228s0.695 0.372 0.973 0.65c0.279 0.279 0.5 0.609 0.65 0.973s0.228 0.754 0.228 1.148c0 0.394-0.078 0.784-0.228 1.148s-0.372 0.695-0.65 0.973l-12.728 12.728z"></path>
<path stroke-linejoin="round" stroke-linecap="round" stroke-miterlimit="4" stroke-width="3" d="M24.465 3.291l4.243 4.243"></path>
<path stroke-linejoin="round" stroke-linecap="round" stroke-miterlimit="4" stroke-width="3" d="M25 19v10c0 0.53-0.211 1.039-0.586 1.414s-0.884 0.586-1.414 0.586h-20c-0.53 0-1.039-0.211-1.414-0.586s-0.586-0.884-0.586-1.414v-20c0-0.53 0.211-1.039 0.586-1.414s0.884-0.586 1.414-0.586h10"></path>
</symbol>
<symbol id="icon-pie-line-graph-desktop-1" viewBox="0 0 32 32">
<path stroke-linejoin="round" stroke-linecap="round" stroke-miterlimit="4" stroke-width="2.6667" d="M19.552 29.337h-7.111l0.889-5.333h5.333l0.889 5.333z"></path>
<path stroke-linejoin="round" stroke-linecap="round" stroke-miterlimit="4" stroke-width="2.6667" d="M9.774 29.337h12.444"></path>
<path stroke-linejoin="round" stroke-linecap="round" stroke-miterlimit="4" stroke-width="2.6667" d="M25.774 2.67h-19.555c-1.964 0-3.556 1.592-3.556 3.556v14.222c0 1.964 1.592 3.556 3.556 3.556h19.555c1.964 0 3.556-1.592 3.556-3.556v-14.222c0-1.964-1.592-3.556-3.556-3.556z"></path>
<path stroke-linejoin="round" stroke-linecap="round" stroke-miterlimit="4" stroke-width="2.6667" d="M2.663 15.115l4.705-4.704c0.083-0.083 0.181-0.148 0.288-0.193s0.224-0.068 0.34-0.068c0.117 0 0.232 0.023 0.34 0.068s0.206 0.11 0.288 0.193l2.298 2.298c0.083 0.083 0.181 0.148 0.288 0.193s0.224 0.068 0.34 0.068c0.117 0 0.232-0.023 0.34-0.068s0.206-0.11 0.288-0.193l4.704-4.705"></path>
<path stroke-linejoin="round" stroke-linecap="round" stroke-miterlimit="4" stroke-width="2.6667" d="M2.663 20.448h26.667"></path>
<path stroke-linejoin="round" stroke-linecap="round" stroke-miterlimit="4" stroke-width="2.6667" d="M18.663 13.337v2.667"></path>
<path stroke-linejoin="round" stroke-linecap="round" stroke-miterlimit="4" stroke-width="2.6667" d="M25.774 13.337v2.667"></path>
<path stroke-linejoin="round" stroke-linecap="round" stroke-miterlimit="4" stroke-width="2.6667" d="M22.219 10.67v5.333"></path>
</symbol>
<symbol id="icon-pie-line-graph-desktop-2" viewBox="0 0 32 32">
<path stroke-linejoin="round" stroke-linecap="round" stroke-miterlimit="4" stroke-width="2.6667" d="M19.552 29.337h-7.111l0.889-5.333h5.333l0.889 5.333z"></path>
<path stroke-linejoin="round" stroke-linecap="round" stroke-miterlimit="4" stroke-width="2.6667" d="M9.774 29.337h12.444"></path>
<path stroke-linejoin="round" stroke-linecap="round" stroke-miterlimit="4" stroke-width="2.6667" d="M25.774 2.67h-19.555c-1.964 0-3.556 1.592-3.556 3.556v14.222c0 1.964 1.592 3.556 3.556 3.556h19.555c1.964 0 3.556-1.592 3.556-3.556v-14.222c0-1.964-1.592-3.556-3.556-3.556z"></path>
<path stroke-linejoin="round" stroke-linecap="round" stroke-miterlimit="4" stroke-width="2.6667" d="M2.663 15.115l4.705-4.704c0.083-0.083 0.181-0.148 0.288-0.193s0.224-0.068 0.34-0.068c0.117 0 0.232 0.023 0.34 0.068s0.206 0.11 0.288 0.193l2.298 2.298c0.083 0.083 0.181 0.148 0.288 0.193s0.224 0.068 0.34 0.068c0.117 0 0.232-0.023 0.34-0.068s0.206-0.11 0.288-0.193l4.704-4.705"></path>
<path stroke-linejoin="round" stroke-linecap="round" stroke-miterlimit="4" stroke-width="2.6667" d="M2.663 20.448h26.667"></path>
<path stroke-linejoin="round" stroke-linecap="round" stroke-miterlimit="4" stroke-width="2.6667" d="M18.663 13.337v2.667"></path>
<path stroke-linejoin="round" stroke-linecap="round" stroke-miterlimit="4" stroke-width="2.6667" d="M25.774 13.337v2.667"></path>
<path stroke-linejoin="round" stroke-linecap="round" stroke-miterlimit="4" stroke-width="2.6667" d="M22.219 10.67v5.333"></path>
</symbol>
<symbol id="icon-project-home-shopping-1" viewBox="0 0 32 32">
<path stroke-linejoin="round" stroke-linecap="round" stroke-miterlimit="4" stroke-width="3" d="M6 6.711v9.291c0 0.53 0.211 1.039 0.586 1.414s0.884 0.586 1.414 0.586h8c0.53 0 1.039-0.211 1.414-0.586s0.586-0.884 0.586-1.414v-9.291"></path>
<path stroke-linejoin="round" stroke-linecap="round" stroke-miterlimit="4" stroke-width="3" d="M22 10.307l-8.667-7.796c-0.367-0.328-0.841-0.509-1.333-0.509s-0.967 0.181-1.333 0.509l-8.667 7.796"></path>
<path stroke-linejoin="round" stroke-linecap="round" stroke-miterlimit="4" stroke-width="3" d="M20 8.509v-5.509"></path>
<path stroke-linejoin="round" stroke-linecap="round" stroke-miterlimit="4" stroke-width="3" d="M1 22h21.277c0.479 0 0.942-0.172 1.305-0.484s0.602-0.745 0.673-1.219l2.488-16.595c0.071-0.474 0.31-0.906 0.673-1.219s0.826-0.484 1.305-0.484h2.277"></path>
<path stroke-linejoin="round" stroke-linecap="round" stroke-miterlimit="4" stroke-width="3" d="M5.5 30c1.381 0 2.5-1.119 2.5-2.5s-1.119-2.5-2.5-2.5c-1.381 0-2.5 1.119-2.5 2.5s1.119 2.5 2.5 2.5z"></path>
<path stroke-linejoin="round" stroke-linecap="round" stroke-miterlimit="4" stroke-width="3" d="M19.5 30c1.381 0 2.5-1.119 2.5-2.5s-1.119-2.5-2.5-2.5c-1.381 0-2.5 1.119-2.5 2.5s1.119 2.5 2.5 2.5z"></path>
</symbol>
<symbol id="icon-search" viewBox="0 0 32 32">
<path stroke-linejoin="round" stroke-linecap="round" stroke-miterlimit="4" stroke-width="3.2" d="M14.667 25.333c5.891 0 10.667-4.776 10.667-10.667s-4.776-10.667-10.667-10.667c-5.891 0-10.667 4.776-10.667 10.667s4.776 10.667 10.667 10.667z"></path>
<path stroke-linejoin="round" stroke-linecap="round" stroke-miterlimit="4" stroke-width="3.2" d="M28 28l-5.8-5.8"></path>
</symbol>
<symbol id="icon-tags-settings-1" viewBox="0 0 32 32">
<path stroke-linejoin="round" stroke-linecap="round" stroke-miterlimit="4" stroke-width="3" d="M9.172 25.585l-7.172-7.171c-0.186-0.186-0.333-0.406-0.434-0.649s-0.152-0.503-0.152-0.766c0-0.263 0.052-0.523 0.152-0.766s0.248-0.463 0.434-0.649l14-14c0.186-0.186 0.406-0.333 0.649-0.433s0.503-0.152 0.766-0.152h7.171c0.53 0 1.039 0.211 1.414 0.586s0.586 0.884 0.586 1.414v7.172"></path>
<path stroke-linejoin="round" stroke-linecap="round" stroke-miterlimit="4" stroke-width="3" d="M22.086 6.001c0-0.133-0.053-0.26-0.147-0.354s-0.221-0.147-0.353-0.147c-0.099 0-0.196 0.029-0.278 0.084s-0.146 0.133-0.184 0.225c-0.038 0.092-0.048 0.192-0.028 0.289s0.067 0.186 0.137 0.256 0.159 0.118 0.256 0.137c0.097 0.019 0.198 0.009 0.289-0.029s0.17-0.102 0.224-0.184c0.055-0.082 0.084-0.179 0.084-0.278z"></path>
<path stroke-linejoin="round" stroke-linecap="round" stroke-miterlimit="4" stroke-width="3" d="M22.586 24c1.105 0 2-0.895 2-2s-0.895-2-2-2c-1.105 0-2 0.895-2 2s0.895 2 2 2z"></path>
<path stroke-linejoin="round" stroke-linecap="round" stroke-miterlimit="4" stroke-width="3" d="M24.284 14.267l0.589 1.937c0.097 0.321 0.313 0.594 0.603 0.762s0.634 0.221 0.961 0.146l1.964-0.456c0.372-0.084 0.761-0.046 1.111 0.107s0.64 0.415 0.83 0.746 0.269 0.714 0.225 1.093c-0.044 0.379-0.207 0.734-0.467 1.013l-1.373 1.481c-0.229 0.247-0.357 0.571-0.357 0.908s0.128 0.661 0.357 0.908l1.373 1.481c0.258 0.28 0.419 0.634 0.461 1.012s-0.038 0.759-0.228 1.089c-0.19 0.329-0.48 0.59-0.828 0.743s-0.736 0.191-1.107 0.108l-1.964-0.455c-0.327-0.076-0.671-0.024-0.961 0.145s-0.506 0.441-0.603 0.763l-0.587 1.935c-0.11 0.365-0.335 0.685-0.641 0.913s-0.677 0.35-1.059 0.35-0.753-0.123-1.059-0.35c-0.306-0.228-0.531-0.548-0.641-0.913l-0.589-1.936c-0.097-0.322-0.313-0.594-0.603-0.763s-0.635-0.22-0.962-0.145l-1.963 0.455c-0.372 0.085-0.762 0.049-1.112-0.104s-0.642-0.414-0.832-0.745c-0.191-0.331-0.27-0.714-0.226-1.094s0.207-0.735 0.468-1.014l1.373-1.481c0.229-0.247 0.357-0.571 0.357-0.908s-0.128-0.661-0.357-0.908l-1.373-1.481c-0.26-0.279-0.424-0.634-0.467-1.013s0.035-0.762 0.225-1.093c0.19-0.331 0.481-0.592 0.83-0.746s0.738-0.191 1.111-0.107l1.963 0.456c0.327 0.073 0.67 0.020 0.96-0.148s0.506-0.44 0.605-0.76l0.589-1.937c0.109-0.367 0.334-0.688 0.641-0.916s0.679-0.351 1.062-0.351c0.383 0.001 0.755 0.125 1.061 0.354s0.53 0.551 0.638 0.918v0z"></path>
</symbol>
<symbol id="icon-trash-2-9" viewBox="0 0 32 32">
<path stroke-linejoin="round" stroke-linecap="round" stroke-miterlimit="4" stroke-width="1.7778" d="M4 8h24"></path>
<path stroke-linejoin="round" stroke-linecap="round" stroke-miterlimit="4" stroke-width="1.7778" d="M10.667 8v-2.667c0-0.707 0.281-1.386 0.781-1.886s1.178-0.781 1.886-0.781h5.333c0.707 0 1.386 0.281 1.886 0.781s0.781 1.178 0.781 1.886v2.667M25.333 8v18.667c0 0.707-0.281 1.386-0.781 1.886s-1.178 0.781-1.886 0.781h-13.333c-0.707 0-1.386-0.281-1.886-0.781s-0.781-1.178-0.781-1.886v-18.667h18.667z"></path>
<path stroke-linejoin="round" stroke-linecap="round" stroke-miterlimit="4" stroke-width="1.7778" d="M13.333 14.667v8"></path>
<path stroke-linejoin="round" stroke-linecap="round" stroke-miterlimit="4" stroke-width="1.7778" d="M18.667 14.667v8"></path>
</symbol>
</defs>
</svg>
