<!-- Generated by IcoMoon.io -->
<svg version="1.1" xmlns="http://www.w3.org/2000/svg" width="32" height="32" viewBox="0 0 32 32">
<title>money-wallet-2</title>
<path fill="none" stroke-linejoin="round" stroke-linecap="round" stroke-miterlimit="4" stroke-width="2.6667" stroke="#000" d="M27.556 23.703v1.778c0 0.943-0.375 1.847-1.041 2.514s-1.571 1.041-2.514 1.041h-17.778c-0.943 0-1.847-0.375-2.514-1.041s-1.041-1.571-1.041-2.514v-12.444c0-0.943 0.375-1.847 1.041-2.514s1.571-1.041 2.514-1.041h17.778c0.943 0 1.847 0.375 2.514 1.041s1.041 1.571 1.041 2.514v1.778"></path>
<path fill="none" stroke-linejoin="round" stroke-linecap="round" stroke-miterlimit="4" stroke-width="2.6667" stroke="#000" d="M24 9.481l-2.76-5.521c-0.104-0.209-0.249-0.395-0.425-0.548s-0.381-0.27-0.603-0.344c-0.221-0.074-0.455-0.103-0.688-0.087s-0.46 0.079-0.669 0.183l-12.632 6.316"></path>
<path fill="none" stroke-linejoin="round" stroke-linecap="round" stroke-miterlimit="4" stroke-width="2.6667" stroke="#000" d="M27.556 23.703c0.471 0 0.924-0.187 1.257-0.521s0.521-0.786 0.521-1.257v-5.333c0-0.471-0.187-0.924-0.521-1.257s-0.786-0.521-1.257-0.521h-4.444c-1.179 0-2.309 0.468-3.143 1.302s-1.302 1.964-1.302 3.143 0.468 2.309 1.302 3.143c0.834 0.833 1.964 1.302 3.143 1.302h4.444z"></path>
<path fill="none" stroke-linejoin="round" stroke-linecap="round" stroke-miterlimit="4" stroke-width="2.6667" stroke="#000" d="M23.111 18.814c0.088 0 0.174 0.026 0.247 0.075s0.13 0.118 0.164 0.2c0.034 0.081 0.042 0.171 0.025 0.257s-0.060 0.166-0.122 0.228c-0.062 0.062-0.141 0.105-0.228 0.122s-0.176 0.008-0.257-0.025c-0.081-0.034-0.151-0.091-0.199-0.164s-0.075-0.159-0.075-0.247c0-0.118 0.047-0.231 0.13-0.315s0.196-0.131 0.314-0.131"></path>
</svg>
