<svg width="171" height="104" viewBox="0 0 171 104" fill="none" xmlns="http://www.w3.org/2000/svg">
<g clip-path="url(#clip0)">
<path d="M169.547 103.032H156.021C155.942 103.033 155.864 103.014 155.79 102.978C155.717 102.941 155.651 102.887 155.595 102.819L96.618 31.8803L89.0034 22.7302L85.5126 18.5323C85.4574 18.4633 85.3914 18.4086 85.318 18.3712C85.2449 18.3338 85.166 18.3145 85.0868 18.3145C85.0071 18.3145 84.9282 18.3338 84.8551 18.3712C84.7821 18.4086 84.7157 18.4633 84.6605 18.5323L81.1759 22.7231L73.5609 31.8803L62.189 45.5486L14.5838 102.805C14.5283 102.872 14.462 102.927 14.3888 102.963C14.3156 103 14.2371 103.019 14.1578 103.018H0.620479C0.498653 103.025 0.377968 102.987 0.274944 102.908C0.171921 102.83 0.0915927 102.715 0.044957 102.579C-0.00167904 102.444 -0.0123438 102.294 0.0144225 102.151C0.0411887 102.008 0.104078 101.878 0.194481 101.78L84.6667 0.217744C84.7219 0.148881 84.7879 0.0941069 84.8609 0.0566948C84.9344 0.0192826 85.0129 0 85.0926 0C85.1723 0 85.2507 0.0192826 85.3238 0.0566948C85.3972 0.0941069 85.4632 0.148881 85.5184 0.217744L92.7014 8.86272L96.618 13.5658L104.233 22.7231L169.973 101.78C170.068 101.877 170.135 102.008 170.165 102.154C170.195 102.299 170.185 102.453 170.138 102.592C170.09 102.731 170.008 102.848 169.902 102.927C169.795 103.007 169.671 103.043 169.547 103.032Z" fill="#4B5FFA"/>
<path d="M148.782 103.019H134.753C134.671 103.02 134.589 103.001 134.513 102.963C134.438 102.925 134.369 102.87 134.311 102.8L96.8763 58.2626L89.0454 48.9391L85.5351 44.7628C85.4783 44.6922 85.4094 44.6359 85.3334 44.5976C85.2574 44.5591 85.1761 44.5394 85.0935 44.5394C85.0109 44.5394 84.9295 44.5591 84.8536 44.5976C84.7776 44.6359 84.7087 44.6922 84.6514 44.7628L81.1473 48.9318L35.8817 102.786C35.8241 102.855 35.7553 102.911 35.6795 102.948C35.6035 102.986 35.5221 103.005 35.4398 103.005H21.417C21.2907 103.012 21.1655 102.972 21.0586 102.892C20.9518 102.811 20.8684 102.694 20.82 102.555C20.7717 102.416 20.7607 102.262 20.7884 102.115C20.8161 101.968 20.8814 101.835 20.9752 101.734L65.4126 48.8661L77.2016 34.8405L84.6639 25.9695C84.7212 25.8989 84.7896 25.8427 84.8656 25.8043C84.9416 25.7659 85.0233 25.7461 85.1055 25.7461C85.1881 25.7461 85.2699 25.7659 85.3459 25.8043C85.4218 25.8427 85.4903 25.8989 85.5476 25.9695L92.9978 34.8405L96.9498 39.5351L104.793 48.8661L149.23 101.734C149.33 101.834 149.4 101.969 149.43 102.119C149.461 102.27 149.45 102.428 149.401 102.571C149.351 102.714 149.264 102.835 149.153 102.915C149.042 102.996 148.912 103.032 148.782 103.019Z" fill="#4B5FFA"/>
<path d="M123.898 97.8704H110.386C110.306 97.8709 110.227 97.8528 110.153 97.8173C110.079 97.7817 110.013 97.7291 109.957 97.6635L85.54 69.3782C85.4844 69.3114 85.418 69.2583 85.3441 69.2217C85.2707 69.1855 85.1914 69.1669 85.1113 69.1669C85.0312 69.1669 84.9519 69.1855 84.8784 69.2217C84.8045 69.2583 84.7381 69.3114 84.6825 69.3782L60.266 97.6635C60.21 97.7291 60.1431 97.7817 60.0697 97.8173C59.9958 97.8528 59.9169 97.8709 59.8368 97.8704H46.2829C46.16 97.8769 46.0388 97.8403 45.9351 97.7642C45.8313 97.6875 45.7504 97.5764 45.7034 97.4451C45.6565 97.3137 45.6458 97.1686 45.6727 97.0296C45.6997 96.8911 45.7628 96.7652 45.8541 96.67L84.6647 51.717C84.7203 51.6502 84.7867 51.5971 84.8606 51.5608C84.934 51.5245 85.0133 51.5059 85.0934 51.5059C85.1735 51.5059 85.2528 51.5245 85.3263 51.5608C85.4002 51.5971 85.4666 51.6502 85.5222 51.717L124.327 96.67C124.418 96.7652 124.481 96.8911 124.508 97.0296C124.535 97.1686 124.524 97.3137 124.478 97.4451C124.431 97.5764 124.35 97.6875 124.246 97.7642C124.142 97.8403 124.021 97.8769 123.898 97.8704Z" fill="#4B5FFA"/>
</g>
<defs>
<clipPath id="clip0">
<rect width="170.182" height="104" fill="white"/>
</clipPath>
</defs>
</svg>
